<mxfile host="app.diagrams.net" modified="2024-04-26T23:29:26.221Z" agent="Mozilla/5.0 (Windows NT 10.0; Win64; x64) AppleWebKit/537.36 (KHTML, like Gecko) Chrome/124.0.0.0 Safari/537.36" etag="GW8gaFUr7duGABn1M8yV" version="24.3.0" type="device">
  <diagram name="Page-1" id="3rnBCiRVLusEH87E3wuf">
    <mxGraphModel dx="2698" dy="2447" grid="1" gridSize="10" guides="1" tooltips="1" connect="1" arrows="1" fold="1" page="1" pageScale="1" pageWidth="850" pageHeight="1100" math="0" shadow="0">
      <root>
        <mxCell id="0" />
        <mxCell id="1" parent="0" />
        <object placeholders="1" c4Name="Container Market(BolsaX)" c4Type="ContainerScopeBoundary" c4Application="Container" label="&lt;font style=&quot;font-size: 16px&quot;&gt;&lt;b&gt;&lt;div style=&quot;text-align: left&quot;&gt;%c4Name%&lt;/div&gt;&lt;/b&gt;&lt;/font&gt;&lt;div style=&quot;text-align: left&quot;&gt;[%c4Application%]&lt;/div&gt;" id="4d2OGvLoM_RoSxxdBMcG-4">
          <mxCell style="rounded=1;fontSize=11;whiteSpace=wrap;html=1;dashed=1;arcSize=20;fillColor=#d9d9d9;strokeColor=#666666;fontColor=#333333;labelBackgroundColor=none;align=left;verticalAlign=bottom;labelBorderColor=none;spacingTop=0;spacing=10;dashPattern=8 4;metaEdit=1;rotatable=0;perimeter=rectanglePerimeter;noLabel=0;labelPadding=0;allowArrows=0;connectable=0;expand=0;recursiveResize=0;editable=1;pointerEvents=0;absoluteArcSize=1;points=[[0.25,0,0],[0.5,0,0],[0.75,0,0],[1,0.25,0],[1,0.5,0],[1,0.75,0],[0.75,1,0],[0.5,1,0],[0.25,1,0],[0,0.75,0],[0,0.5,0],[0,0.25,0]];" parent="1" vertex="1">
            <mxGeometry x="10" y="10" width="1440" height="350" as="geometry" />
          </mxCell>
        </object>
        <object placeholders="1" c4Name="Settlement Market (BolsaX)" c4Type="ContainerScopeBoundary" c4Application="Container Market (BolsaX)" label="&lt;font style=&quot;font-size: 16px&quot;&gt;&lt;b&gt;&lt;div style=&quot;text-align: left&quot;&gt;%c4Name%&lt;/div&gt;&lt;/b&gt;&lt;/font&gt;&lt;div style=&quot;text-align: left&quot;&gt;[%c4Application%]&lt;/div&gt;" id="4d2OGvLoM_RoSxxdBMcG-57">
          <mxCell style="rounded=1;fontSize=11;whiteSpace=wrap;html=1;dashed=1;arcSize=20;fillColor=#e3e3e3;strokeColor=#666666;fontColor=#333333;labelBackgroundColor=none;align=left;verticalAlign=bottom;labelBorderColor=none;spacingTop=0;spacing=10;dashPattern=8 4;metaEdit=1;rotatable=0;perimeter=rectanglePerimeter;noLabel=0;labelPadding=0;allowArrows=0;connectable=0;expand=0;recursiveResize=0;editable=1;pointerEvents=0;absoluteArcSize=1;points=[[0.25,0,0],[0.5,0,0],[0.75,0,0],[1,0.25,0],[1,0.5,0],[1,0.75,0],[0.75,1,0],[0.5,1,0],[0.25,1,0],[0,0.75,0],[0,0.5,0],[0,0.25,0]];" parent="1" vertex="1">
            <mxGeometry x="852" y="140" width="308" height="220" as="geometry" />
          </mxCell>
        </object>
        <object placeholders="1" c4Name="Audit Container" c4Type="ContainerScopeBoundary" c4Application="Container" label="&lt;font style=&quot;font-size: 16px&quot;&gt;&lt;b&gt;&lt;div style=&quot;text-align: left&quot;&gt;%c4Name%&lt;/div&gt;&lt;/b&gt;&lt;/font&gt;&lt;div style=&quot;text-align: left&quot;&gt;[%c4Application%]&lt;/div&gt;" id="4d2OGvLoM_RoSxxdBMcG-1">
          <mxCell style="rounded=1;fontSize=11;whiteSpace=wrap;html=1;dashed=1;arcSize=20;fillColor=#d9d9d9;strokeColor=#666666;fontColor=#333333;labelBackgroundColor=none;align=left;verticalAlign=bottom;labelBorderColor=none;spacingTop=0;spacing=10;dashPattern=8 4;metaEdit=1;rotatable=0;perimeter=rectanglePerimeter;noLabel=0;labelPadding=0;allowArrows=0;connectable=0;expand=0;recursiveResize=0;editable=1;pointerEvents=0;absoluteArcSize=1;points=[[0.25,0,0],[0.5,0,0],[0.75,0,0],[1,0.25,0],[1,0.5,0],[1,0.75,0],[0.75,1,0],[0.5,1,0],[0.25,1,0],[0,0.75,0],[0,0.5,0],[0,0.25,0]];" parent="1" vertex="1">
            <mxGeometry x="850" y="900" width="570" height="200" as="geometry" />
          </mxCell>
        </object>
        <object placeholders="1" c4Name="OMS - Order Management System&#xa;[ParticipanteX]" c4Type="ContainerScopeBoundary" c4Application="Container" label="&lt;font style=&quot;font-size: 16px&quot;&gt;&lt;b&gt;&lt;div style=&quot;text-align: left&quot;&gt;%c4Name%&lt;/div&gt;&lt;/b&gt;&lt;/font&gt;&lt;div style=&quot;text-align: left&quot;&gt;[%c4Application%]&lt;/div&gt;" id="4d2OGvLoM_RoSxxdBMcG-2">
          <mxCell style="rounded=1;fontSize=11;whiteSpace=wrap;html=1;dashed=1;arcSize=20;fillColor=#8f8f8f;strokeColor=#666666;fontColor=#333333;labelBackgroundColor=none;align=left;verticalAlign=bottom;labelBorderColor=none;spacingTop=0;spacing=10;dashPattern=8 4;metaEdit=1;rotatable=0;perimeter=rectanglePerimeter;noLabel=0;labelPadding=0;allowArrows=0;connectable=0;expand=0;recursiveResize=0;editable=1;pointerEvents=0;absoluteArcSize=1;points=[[0.25,0,0],[0.5,0,0],[0.75,0,0],[1,0.25,0],[1,0.5,0],[1,0.75,0],[0.75,1,0],[0.5,1,0],[0.25,1,0],[0,0.75,0],[0,0.5,0],[0,0.25,0]];" parent="1" vertex="1">
            <mxGeometry x="10" y="370" width="830" height="510" as="geometry" />
          </mxCell>
        </object>
        <object placeholders="1" c4Name="Risk Engine" c4Type="ContainerScopeBoundary" c4Application="Risk Module" label="&lt;font style=&quot;font-size: 16px&quot;&gt;&lt;b&gt;&lt;div style=&quot;text-align: left&quot;&gt;%c4Name%&lt;/div&gt;&lt;/b&gt;&lt;/font&gt;&lt;div style=&quot;text-align: left&quot;&gt;[%c4Application%]&lt;/div&gt;" id="4d2OGvLoM_RoSxxdBMcG-3">
          <mxCell style="rounded=1;fontSize=11;whiteSpace=wrap;html=1;dashed=1;arcSize=20;fillColor=#FFFFCC;strokeColor=#666666;fontColor=#333333;labelBackgroundColor=none;align=left;verticalAlign=bottom;labelBorderColor=none;spacingTop=0;spacing=10;dashPattern=8 4;metaEdit=1;rotatable=0;perimeter=rectanglePerimeter;noLabel=0;labelPadding=0;allowArrows=0;connectable=0;expand=0;recursiveResize=0;editable=1;pointerEvents=0;absoluteArcSize=1;points=[[0.25,0,0],[0.5,0,0],[0.75,0,0],[1,0.25,0],[1,0.5,0],[1,0.75,0],[0.75,1,0],[0.5,1,0],[0.25,1,0],[0,0.75,0],[0,0.5,0],[0,0.25,0]];" parent="1" vertex="1">
            <mxGeometry x="20" y="390" width="810" height="309" as="geometry" />
          </mxCell>
        </object>
        <object placeholders="1" c4Name="Order&#xa; Engine X" c4Type="Component" c4Technology="C# and comunication SignalR" c4Description="Responsabilidade de comunicação continua Com ExBerry para o Envio de ordens e recebimento de exectution Report" label="&lt;font style=&quot;font-size: 16px&quot;&gt;&lt;b&gt;%c4Name%&lt;/b&gt;&lt;/font&gt;&lt;div&gt;[%c4Type%: %c4Technology%]&lt;/div&gt;&lt;br&gt;&lt;div&gt;&lt;font style=&quot;font-size: 11px&quot;&gt;%c4Description%&lt;/font&gt;&lt;/div&gt;" id="4d2OGvLoM_RoSxxdBMcG-5">
          <mxCell style="rounded=1;whiteSpace=wrap;html=1;labelBackgroundColor=none;fillColor=#0000CC;fontColor=#ffffff;align=center;arcSize=6;strokeColor=#2086C9;metaEdit=1;resizable=0;points=[[0.25,0,0],[0.5,0,0],[0.75,0,0],[1,0.25,0],[1,0.5,0],[1,0.75,0],[0.75,1,0],[0.5,1,0],[0.25,1,0],[0,0.75,0],[0,0.5,0],[0,0.25,0]];" parent="1" vertex="1">
            <mxGeometry x="270" y="190" width="240" height="120" as="geometry" />
          </mxCell>
        </object>
        <object placeholders="1" c4Name="Container API&#xa;BFF" c4Type="ContainerScopeBoundary" c4Application="Container" label="&lt;font style=&quot;font-size: 16px&quot;&gt;&lt;b&gt;&lt;div style=&quot;text-align: left&quot;&gt;%c4Name%&lt;/div&gt;&lt;/b&gt;&lt;/font&gt;&lt;div style=&quot;text-align: left&quot;&gt;[%c4Application%]&lt;/div&gt;" id="4d2OGvLoM_RoSxxdBMcG-6">
          <mxCell style="rounded=1;fontSize=11;whiteSpace=wrap;html=1;dashed=1;arcSize=20;fillColor=#d9d9d9;strokeColor=#666666;fontColor=#333333;labelBackgroundColor=none;align=left;verticalAlign=bottom;labelBorderColor=none;spacingTop=0;spacing=10;dashPattern=8 4;metaEdit=1;rotatable=0;perimeter=rectanglePerimeter;noLabel=0;labelPadding=0;allowArrows=0;connectable=0;expand=0;recursiveResize=0;editable=1;pointerEvents=0;absoluteArcSize=1;points=[[0.25,0,0],[0.5,0,0],[0.75,0,0],[1,0.25,0],[1,0.5,0],[1,0.75,0],[0.75,1,0],[0.5,1,0],[0.25,1,0],[0,0.75,0],[0,0.5,0],[0,0.25,0]];" parent="1" vertex="1">
            <mxGeometry x="10" y="900" width="830" height="200" as="geometry" />
          </mxCell>
        </object>
        <object placeholders="1" c4Name="LimitX Engine" c4Type="Component" c4Technology="C# BackgroundWorker&#xa;SignalR" c4Description="Responsabilidade de Envio de ordens e recebimento de exectution Report" label="&lt;font style=&quot;font-size: 16px&quot;&gt;&lt;b&gt;%c4Name%&lt;/b&gt;&lt;/font&gt;&lt;div&gt;[%c4Type%: %c4Technology%]&lt;/div&gt;&lt;br&gt;&lt;div&gt;&lt;font style=&quot;font-size: 11px&quot;&gt;%c4Description%&lt;/font&gt;&lt;/div&gt;" id="4d2OGvLoM_RoSxxdBMcG-7">
          <mxCell style="rounded=1;whiteSpace=wrap;html=1;labelBackgroundColor=none;fillColor=#63BEF2;fontColor=#ffffff;align=center;arcSize=6;strokeColor=#2086C9;metaEdit=1;resizable=0;points=[[0.25,0,0],[0.5,0,0],[0.75,0,0],[1,0.25,0],[1,0.5,0],[1,0.75,0],[0.75,1,0],[0.5,1,0],[0.25,1,0],[0,0.75,0],[0,0.5,0],[0,0.25,0]];" parent="1" vertex="1">
            <mxGeometry x="30" y="400" width="240" height="120" as="geometry" />
          </mxCell>
        </object>
        <object placeholders="1" c4Name="PostionX Engine" c4Type="Component" c4Technology="C# BackgroundWorker&#xa;SignalR" c4Description="Responsabilidade de Envio de ordens e recebimento de exectution Report" label="&lt;font style=&quot;font-size: 16px&quot;&gt;&lt;b&gt;%c4Name%&lt;/b&gt;&lt;/font&gt;&lt;div&gt;[%c4Type%: %c4Technology%]&lt;/div&gt;&lt;br&gt;&lt;div&gt;&lt;font style=&quot;font-size: 11px&quot;&gt;%c4Description%&lt;/font&gt;&lt;/div&gt;" id="4d2OGvLoM_RoSxxdBMcG-8">
          <mxCell style="rounded=1;whiteSpace=wrap;html=1;labelBackgroundColor=none;fillColor=#63BEF2;fontColor=#ffffff;align=center;arcSize=6;strokeColor=#2086C9;metaEdit=1;resizable=0;points=[[0.25,0,0],[0.5,0,0],[0.75,0,0],[1,0.25,0],[1,0.5,0],[1,0.75,0],[0.75,1,0],[0.5,1,0],[0.25,1,0],[0,0.75,0],[0,0.5,0],[0,0.25,0]];" parent="1" vertex="1">
            <mxGeometry x="580" y="400" width="240" height="120" as="geometry" />
          </mxCell>
        </object>
        <object placeholders="1" c4Type="Limit Cache" c4Container="Container" c4Technology="Redis" c4Description="Responsabilidade de Storage de Limits atual" label="&lt;font style=&quot;font-size: 11px;&quot;&gt;&lt;b style=&quot;font-size: 11px;&quot;&gt;%c4Type%&lt;/b&gt;&lt;/font&gt;&lt;div style=&quot;font-size: 11px;&quot;&gt;[%c4Container%:&amp;nbsp;%c4Technology%]&lt;/div&gt;&lt;br style=&quot;font-size: 11px;&quot;&gt;&lt;div style=&quot;font-size: 11px;&quot;&gt;&lt;font style=&quot;font-size: 11px&quot;&gt;&lt;font color=&quot;#E6E6E6&quot; style=&quot;font-size: 11px;&quot;&gt;%c4Description%&lt;/font&gt;&lt;/font&gt;&lt;/div&gt;" id="4d2OGvLoM_RoSxxdBMcG-9">
          <mxCell style="shape=cylinder3;size=15;whiteSpace=wrap;html=1;boundedLbl=1;rounded=0;labelBackgroundColor=none;fillColor=#FF6666;fontSize=11;fontColor=#ffffff;align=center;strokeColor=#990000;metaEdit=1;points=[[0.5,0,0],[1,0.25,0],[1,0.5,0],[1,0.75,0],[0.5,1,0],[0,0.75,0],[0,0.5,0],[0,0.25,0]];resizable=1;" parent="1" vertex="1">
            <mxGeometry x="250" y="708.5" width="140" height="110" as="geometry" />
          </mxCell>
        </object>
        <object placeholders="1" c4Type="Position Cache" c4Container="Container" c4Technology="Redis" c4Description="Responsibilidade de cache de posição consolidada atual" label="&lt;font style=&quot;font-size: 11px;&quot;&gt;&lt;b style=&quot;font-size: 11px;&quot;&gt;%c4Type%&lt;/b&gt;&lt;/font&gt;&lt;div style=&quot;font-size: 11px;&quot;&gt;[%c4Container%:&amp;nbsp;%c4Technology%]&lt;/div&gt;&lt;br style=&quot;font-size: 11px;&quot;&gt;&lt;div style=&quot;font-size: 11px;&quot;&gt;&lt;font style=&quot;font-size: 11px&quot;&gt;&lt;font color=&quot;#E6E6E6&quot; style=&quot;font-size: 11px;&quot;&gt;%c4Description%&lt;/font&gt;&lt;/font&gt;&lt;/div&gt;" id="4d2OGvLoM_RoSxxdBMcG-10">
          <mxCell style="shape=cylinder3;size=15;whiteSpace=wrap;html=1;boundedLbl=1;rounded=0;labelBackgroundColor=none;fillColor=#FF6666;fontSize=11;fontColor=#ffffff;align=center;strokeColor=#990000;metaEdit=1;points=[[0.5,0,0],[1,0.25,0],[1,0.5,0],[1,0.75,0],[0.5,1,0],[0,0.75,0],[0,0.5,0],[0,0.25,0]];resizable=1;" parent="1" vertex="1">
            <mxGeometry x="480" y="708.5" width="140" height="111.5" as="geometry" />
          </mxCell>
        </object>
        <object placeholders="1" c4Type="MessageBus" c4Container="Container" c4Technology="RabbitMQ - Topics/Queue" c4Description="Responsabilidade de mensageria &#xa;para Cotações, posições, order, OrderDetail" label="&lt;font style=&quot;font-size: 16px&quot;&gt;&lt;b&gt;%c4Type%&lt;/b&gt;&lt;/font&gt;&lt;div&gt;[%c4Container%:&amp;nbsp;%c4Technology%]&lt;/div&gt;&lt;br&gt;&lt;div&gt;&lt;font style=&quot;font-size: 11px&quot;&gt;&lt;font color=&quot;#E6E6E6&quot;&gt;%c4Description%&lt;/font&gt;&lt;/div&gt;" id="4d2OGvLoM_RoSxxdBMcG-11">
          <mxCell style="shape=cylinder3;size=15;direction=south;whiteSpace=wrap;html=1;boundedLbl=1;rounded=0;labelBackgroundColor=none;fillColor=#FF8000;fontSize=12;fontColor=#ffffff;align=center;strokeColor=#994C00;metaEdit=1;points=[[0.5,0,0],[1,0.25,0],[1,0.5,0],[1,0.75,0],[0.5,1,0],[0,0.75,0],[0,0.5,0],[0,0.25,0]];resizable=1;rotation=-90;resizeHeight=1;resizeWidth=1;" parent="1" vertex="1">
            <mxGeometry x="-367.25" y="551.25" width="454" height="105" as="geometry" />
          </mxCell>
        </object>
        <object placeholders="1" c4Name="OrdersX" c4Type="Container" c4Technology="Cosmos/Postgree" c4Description="Responsabilidade de storage&#xa; as ordens e atualizar seus status" label="&lt;font style=&quot;font-size: 11px;&quot;&gt;&lt;b style=&quot;font-size: 11px;&quot;&gt;%c4Name%&lt;/b&gt;&lt;/font&gt;&lt;div style=&quot;font-size: 11px;&quot;&gt;[%c4Type%:&amp;nbsp;%c4Technology%]&lt;/div&gt;&lt;br style=&quot;font-size: 11px;&quot;&gt;&lt;div style=&quot;font-size: 11px;&quot;&gt;&lt;font style=&quot;font-size: 11px&quot;&gt;&lt;font color=&quot;#E6E6E6&quot; style=&quot;font-size: 11px;&quot;&gt;%c4Description%&lt;/font&gt;&lt;/font&gt;&lt;/div&gt;" id="4d2OGvLoM_RoSxxdBMcG-12">
          <mxCell style="shape=cylinder3;size=15;whiteSpace=wrap;html=1;boundedLbl=1;rounded=0;labelBackgroundColor=none;fillColor=#23A2D9;fontSize=11;fontColor=#ffffff;align=center;strokeColor=#0E7DAD;metaEdit=1;points=[[0.5,0,0],[1,0.25,0],[1,0.5,0],[1,0.75,0],[0.5,1,0],[0,0.75,0],[0,0.5,0],[0,0.25,0]];resizable=1;" parent="1" vertex="1">
            <mxGeometry x="30" y="150" width="160" height="100" as="geometry" />
          </mxCell>
        </object>
        <object placeholders="1" c4Type="Relationship" c4Technology="FIX" c4Description="Envio de ordem" label="&lt;div style=&quot;text-align: left&quot;&gt;&lt;div style=&quot;text-align: center&quot;&gt;&lt;b&gt;%c4Description%&lt;/b&gt;&lt;/div&gt;&lt;div style=&quot;text-align: center&quot;&gt;[%c4Technology%]&lt;/div&gt;&lt;/div&gt;" id="4d2OGvLoM_RoSxxdBMcG-13">
          <mxCell style="endArrow=blockThin;html=1;fontSize=10;fontColor=#404040;strokeWidth=2;endFill=1;strokeColor=#828282;elbow=vertical;metaEdit=1;endSize=14;startSize=14;jumpStyle=arc;jumpSize=16;rounded=1;edgeStyle=orthogonalEdgeStyle;curved=0;exitX=0.924;exitY=0.007;exitDx=0;exitDy=0;exitPerimeter=0;flowAnimation=1;shadow=1;" parent="1" source="4d2OGvLoM_RoSxxdBMcG-5" edge="1">
            <mxGeometry x="0.4266" y="51" width="240" relative="1" as="geometry">
              <mxPoint x="490" y="190" as="sourcePoint" />
              <mxPoint x="480" y="130" as="targetPoint" />
              <Array as="points">
                <mxPoint x="492" y="160" />
                <mxPoint x="480" y="160" />
              </Array>
              <mxPoint x="1" y="10" as="offset" />
            </mxGeometry>
          </mxCell>
        </object>
        <object placeholders="1" c4Type="Relationship" c4Technology="FIX" c4Description="Envio de ordem &#xa;ExecutionReport" label="&lt;div style=&quot;text-align: left&quot;&gt;&lt;div style=&quot;text-align: center&quot;&gt;&lt;b&gt;%c4Description%&lt;/b&gt;&lt;/div&gt;&lt;div style=&quot;text-align: center&quot;&gt;[%c4Technology%]&lt;/div&gt;&lt;/div&gt;" id="4d2OGvLoM_RoSxxdBMcG-14">
          <mxCell style="endArrow=blockThin;html=1;fontSize=10;fontColor=#404040;strokeWidth=2;endFill=1;strokeColor=#828282;elbow=vertical;metaEdit=1;endSize=14;startSize=14;jumpStyle=arc;jumpSize=16;rounded=1;edgeStyle=orthogonalEdgeStyle;exitX=0;exitY=0.5;exitDx=0;exitDy=0;exitPerimeter=0;curved=0;flowAnimation=1;shadow=1;entryX=0.208;entryY=0.018;entryDx=0;entryDy=0;entryPerimeter=0;" parent="1" target="4d2OGvLoM_RoSxxdBMcG-5" edge="1">
            <mxGeometry width="240" relative="1" as="geometry">
              <mxPoint x="305" y="66" as="sourcePoint" />
              <mxPoint x="320" y="190" as="targetPoint" />
              <Array as="points">
                <mxPoint x="305" y="70" />
                <mxPoint x="240" y="70" />
                <mxPoint x="240" y="160" />
                <mxPoint x="320" y="160" />
              </Array>
            </mxGeometry>
          </mxCell>
        </object>
        <object placeholders="1" c4Type="Relationship" c4Technology="EntityFramework" c4Description="Envio de ordem status&#xa;ExecutionReport" label="&lt;div style=&quot;text-align: left; font-size: 8px;&quot;&gt;&lt;div style=&quot;text-align: center; font-size: 8px;&quot;&gt;&lt;b style=&quot;font-size: 8px;&quot;&gt;%c4Description%&lt;/b&gt;&lt;/div&gt;&lt;div style=&quot;text-align: center; font-size: 8px;&quot;&gt;[%c4Technology%]&lt;/div&gt;&lt;/div&gt;" id="4d2OGvLoM_RoSxxdBMcG-15">
          <mxCell style="endArrow=blockThin;html=1;fontSize=8;fontColor=#404040;strokeWidth=1;endFill=1;strokeColor=#828282;elbow=vertical;metaEdit=1;endSize=14;startSize=14;jumpStyle=arc;jumpSize=16;rounded=1;edgeStyle=orthogonalEdgeStyle;curved=0;exitX=-0.001;exitY=0.231;exitDx=0;exitDy=0;exitPerimeter=0;entryX=0.988;entryY=0.517;entryDx=0;entryDy=0;entryPerimeter=0;" parent="1" source="4d2OGvLoM_RoSxxdBMcG-5" target="4d2OGvLoM_RoSxxdBMcG-12" edge="1">
            <mxGeometry x="-0.1115" y="50" width="240" relative="1" as="geometry">
              <mxPoint x="418.6700000000003" y="310.05" as="sourcePoint" />
              <mxPoint x="421.52263157894754" y="319.21" as="targetPoint" />
              <Array as="points">
                <mxPoint x="230" y="218" />
                <mxPoint x="230" y="202" />
              </Array>
              <mxPoint x="20" y="40" as="offset" />
            </mxGeometry>
          </mxCell>
        </object>
        <object placeholders="1" c4Type="Relationship" c4Technology="Protobuf&#xa;masstransit" c4Description="Envio de ordem status&#xa;ExecutionReport" label="&lt;div style=&quot;text-align: left&quot;&gt;&lt;div style=&quot;text-align: center&quot;&gt;&lt;b&gt;%c4Description%&lt;/b&gt;&lt;/div&gt;&lt;div style=&quot;text-align: center&quot;&gt;[%c4Technology%]&lt;/div&gt;&lt;/div&gt;" id="4d2OGvLoM_RoSxxdBMcG-16">
          <mxCell style="endArrow=blockThin;html=1;fontSize=10;fontColor=#404040;strokeWidth=2;endFill=1;strokeColor=#828282;elbow=vertical;metaEdit=1;endSize=14;startSize=14;jumpStyle=arc;jumpSize=16;rounded=1;edgeStyle=orthogonalEdgeStyle;curved=0;exitX=0;exitY=0.75;exitDx=0;exitDy=0;exitPerimeter=0;entryX=0.5;entryY=0;entryDx=0;entryDy=0;entryPerimeter=0;flowAnimation=1;shadow=1;" parent="1" source="4d2OGvLoM_RoSxxdBMcG-5" target="4d2OGvLoM_RoSxxdBMcG-11" edge="1">
            <mxGeometry x="0.6773" y="-40" width="240" relative="1" as="geometry">
              <mxPoint x="437" y="321" as="sourcePoint" />
              <mxPoint x="437" y="420" as="targetPoint" />
              <Array as="points">
                <mxPoint x="260" y="280" />
                <mxPoint x="260" y="300" />
                <mxPoint x="-140" y="300" />
              </Array>
              <mxPoint as="offset" />
            </mxGeometry>
          </mxCell>
        </object>
        <object placeholders="1" c4Type="MessageBus" c4Container="Container" c4Technology="RabbitMQ - Topics/Queue" c4Description="Responsabilidade de mensageria &#xa;para Cotações, posições, order, OrderDetail, logs auditoria " label="&lt;font style=&quot;font-size: 16px&quot;&gt;&lt;b&gt;%c4Type%&lt;/b&gt;&lt;/font&gt;&lt;div&gt;[%c4Container%:&amp;nbsp;%c4Technology%]&lt;/div&gt;&lt;br&gt;&lt;div&gt;&lt;font style=&quot;font-size: 11px&quot;&gt;&lt;font color=&quot;#E6E6E6&quot;&gt;%c4Description%&lt;/font&gt;&lt;/div&gt;" id="4d2OGvLoM_RoSxxdBMcG-17">
          <mxCell style="shape=cylinder3;size=15;direction=south;whiteSpace=wrap;html=1;boundedLbl=1;rounded=0;labelBackgroundColor=none;fillColor=#FF8000;fontSize=12;fontColor=#ffffff;align=center;strokeColor=#994C00;metaEdit=1;points=[[0.5,0,0],[1,0.25,0],[1,0.5,0],[1,0.75,0],[0.5,1,0],[0,0.75,0],[0,0.5,0],[0,0.25,0]];resizable=1;rotation=90;resizeHeight=1;resizeWidth=1;" parent="1" vertex="1">
            <mxGeometry x="761.75" y="550.25" width="458" height="105" as="geometry" />
          </mxCell>
        </object>
        <object placeholders="1" c4Type="Relationship" c4Technology="Protobuf&#xa;masstransit" c4Description="Ordem status&#xa;ExecutionReport" label="&lt;div style=&quot;text-align: left; font-size: 8px;&quot;&gt;&lt;div style=&quot;text-align: center; font-size: 8px;&quot;&gt;&lt;b style=&quot;font-size: 8px;&quot;&gt;%c4Description%&lt;/b&gt;&lt;/div&gt;&lt;div style=&quot;text-align: center; font-size: 8px;&quot;&gt;[%c4Technology%]&lt;/div&gt;&lt;/div&gt;" id="4d2OGvLoM_RoSxxdBMcG-18">
          <mxCell style="endArrow=blockThin;html=1;fontSize=8;fontColor=#404040;strokeWidth=1;endFill=1;strokeColor=#828282;elbow=vertical;metaEdit=1;endSize=14;startSize=14;jumpStyle=arc;jumpSize=16;rounded=1;edgeStyle=orthogonalEdgeStyle;curved=0;exitX=1.026;exitY=0.177;exitDx=0;exitDy=0;exitPerimeter=0;entryX=0;entryY=0.5;entryDx=0;entryDy=0;entryPerimeter=0;" parent="1" source="4d2OGvLoM_RoSxxdBMcG-11" target="4d2OGvLoM_RoSxxdBMcG-7" edge="1">
            <mxGeometry x="-0.3989" y="-29" width="240" relative="1" as="geometry">
              <mxPoint x="451" y="550" as="sourcePoint" />
              <mxPoint x="80" y="647" as="targetPoint" />
              <Array as="points">
                <mxPoint x="-20" y="465" />
                <mxPoint x="-20" y="460" />
              </Array>
              <mxPoint as="offset" />
            </mxGeometry>
          </mxCell>
        </object>
        <object placeholders="1" c4Type="Relationship" c4Technology="Protobuf&#xa;masstransit" c4Description="Trade Executed" label="&lt;div style=&quot;text-align: left; font-size: 8px;&quot;&gt;&lt;div style=&quot;text-align: center; font-size: 8px;&quot;&gt;&lt;b style=&quot;font-size: 8px;&quot;&gt;%c4Description%&lt;/b&gt;&lt;/div&gt;&lt;div style=&quot;text-align: center; font-size: 8px;&quot;&gt;[%c4Technology%]&lt;/div&gt;&lt;/div&gt;" id="4d2OGvLoM_RoSxxdBMcG-19">
          <mxCell style="endArrow=blockThin;html=1;fontSize=8;fontColor=#404040;strokeWidth=2;endFill=1;strokeColor=#6bbdf0;elbow=vertical;metaEdit=1;endSize=14;startSize=14;jumpStyle=arc;jumpSize=16;rounded=1;edgeStyle=orthogonalEdgeStyle;curved=0;exitX=1;exitY=0.838;exitDx=0;exitDy=0;exitPerimeter=0;entryX=0.994;entryY=0.413;entryDx=0;entryDy=0;entryPerimeter=0;flowAnimation=1;" parent="1" source="4d2OGvLoM_RoSxxdBMcG-17" edge="1">
            <mxGeometry x="-0.1218" y="-27" width="240" relative="1" as="geometry">
              <mxPoint x="938.25" y="441.74" as="sourcePoint" />
              <mxPoint x="818.5600000000004" y="446.55999999999995" as="targetPoint" />
              <Array as="points">
                <mxPoint x="840" y="448" />
                <mxPoint x="840" y="447" />
              </Array>
              <mxPoint as="offset" />
            </mxGeometry>
          </mxCell>
        </object>
        <object placeholders="1" c4Name="Order Router X Engine" c4Type="Component" c4Technology="C# BackgroundWorker &#xa;SignalR" c4Description="Responsabilidade de orchestração de Order" label="&lt;font style=&quot;font-size: 16px&quot;&gt;&lt;b&gt;%c4Name%&lt;/b&gt;&lt;/font&gt;&lt;div&gt;[%c4Type%: %c4Technology%]&lt;/div&gt;&lt;br&gt;&lt;div&gt;&lt;font style=&quot;font-size: 11px&quot;&gt;%c4Description%&lt;/font&gt;&lt;/div&gt;" id="4d2OGvLoM_RoSxxdBMcG-22">
          <mxCell style="rounded=1;whiteSpace=wrap;html=1;labelBackgroundColor=none;fillColor=#6bbdf0;fontColor=#ffffff;align=center;arcSize=6;strokeColor=#2086C9;metaEdit=1;resizable=1;points=[[0.25,0,0],[0.5,0,0],[0.75,0,0],[1,0.25,0],[1,0.5,0],[1,0.75,0],[0.75,1,0],[0.5,1,0],[0.25,1,0],[0,0.75,0],[0,0.5,0],[0,0.25,0]];" parent="1" vertex="1">
            <mxGeometry x="241" y="570" width="370" height="80" as="geometry" />
          </mxCell>
        </object>
        <object placeholders="1" c4Type="Relationship" c4Technology="SignalR/Websocket" c4Description="Ordem &#xa;Compra/Venda&#xa;" label="&lt;div style=&quot;text-align: left&quot;&gt;&lt;div style=&quot;text-align: center&quot;&gt;&lt;b&gt;%c4Description%&lt;/b&gt;&lt;/div&gt;&lt;div style=&quot;text-align: center&quot;&gt;[%c4Technology%]&lt;/div&gt;&lt;/div&gt;" id="4d2OGvLoM_RoSxxdBMcG-23">
          <mxCell style="endArrow=blockThin;html=1;fontSize=10;fontColor=#404040;strokeWidth=4;endFill=1;strokeColor=#0a0064;elbow=vertical;metaEdit=1;jumpStyle=arc;jumpSize=16;rounded=1;edgeStyle=orthogonalEdgeStyle;curved=0;entryX=0.5;entryY=1;entryDx=0;entryDy=0;entryPerimeter=0;exitX=0.5;exitY=0;exitDx=0;exitDy=0;exitPerimeter=0;fillColor=#000066;opacity=60;" parent="1" source="4d2OGvLoM_RoSxxdBMcG-22" target="4d2OGvLoM_RoSxxdBMcG-5" edge="1">
            <mxGeometry x="0.4179" y="-34" width="240" relative="1" as="geometry">
              <mxPoint x="650" y="560" as="sourcePoint" />
              <mxPoint x="520" y="310" as="targetPoint" />
              <Array as="points">
                <mxPoint x="426" y="400" />
                <mxPoint x="390" y="400" />
              </Array>
              <mxPoint as="offset" />
            </mxGeometry>
          </mxCell>
        </object>
        <object placeholders="1" c4Type="Relationship" c4Technology="APIRest/SignalR" c4Description="Validação &#xa;Ordem Venda&#xa;" label="&lt;div style=&quot;text-align: left&quot;&gt;&lt;div style=&quot;text-align: center&quot;&gt;&lt;b&gt;%c4Description%&lt;/b&gt;&lt;/div&gt;&lt;div style=&quot;text-align: center&quot;&gt;[%c4Technology%]&lt;/div&gt;&lt;/div&gt;" id="4d2OGvLoM_RoSxxdBMcG-24">
          <mxCell style="endArrow=blockThin;html=1;fontSize=10;fontColor=#404040;strokeWidth=5;endFill=1;strokeColor=#990000;elbow=vertical;metaEdit=1;jumpStyle=arc;jumpSize=16;rounded=1;edgeStyle=orthogonalEdgeStyle;curved=0;entryX=0.384;entryY=1.007;entryDx=0;entryDy=0;entryPerimeter=0;fillColor=#FF6666;exitX=1;exitY=0.5;exitDx=0;exitDy=0;exitPerimeter=0;" parent="1" source="4d2OGvLoM_RoSxxdBMcG-22" target="4d2OGvLoM_RoSxxdBMcG-8" edge="1">
            <mxGeometry x="0.1604" y="-8" width="240" relative="1" as="geometry">
              <mxPoint x="620" y="610" as="sourcePoint" />
              <mxPoint x="680" y="420" as="targetPoint" />
              <Array as="points">
                <mxPoint x="672" y="610" />
                <mxPoint x="672" y="521" />
              </Array>
              <mxPoint as="offset" />
            </mxGeometry>
          </mxCell>
        </object>
        <object placeholders="1" c4Type="Relationship" c4Technology="APIRest/SignalR" c4Description="Validação &#xa;Ordem Compra" label="&lt;div style=&quot;text-align: left&quot;&gt;&lt;div style=&quot;text-align: center&quot;&gt;&lt;b&gt;%c4Description%&lt;/b&gt;&lt;/div&gt;&lt;div style=&quot;text-align: center&quot;&gt;[%c4Technology%]&lt;/div&gt;&lt;/div&gt;" id="4d2OGvLoM_RoSxxdBMcG-25">
          <mxCell style="endArrow=blockThin;html=1;fontSize=10;fontColor=#404040;strokeWidth=5;endFill=1;strokeColor=#006600;elbow=vertical;metaEdit=1;jumpStyle=arc;jumpSize=16;rounded=1;edgeStyle=orthogonalEdgeStyle;curved=0;exitX=0;exitY=0.5;exitDx=0;exitDy=0;exitPerimeter=0;fillColor=#66FF66;" parent="1" source="4d2OGvLoM_RoSxxdBMcG-22" edge="1">
            <mxGeometry x="0.0772" y="10" width="240" relative="1" as="geometry">
              <mxPoint x="50" y="610" as="sourcePoint" />
              <mxPoint x="210" y="520" as="targetPoint" />
              <Array as="points">
                <mxPoint x="210" y="610" />
              </Array>
              <mxPoint as="offset" />
            </mxGeometry>
          </mxCell>
        </object>
        <object placeholders="1" c4Type="Relationship" c4Technology="Protobuf&#xa;masstransit" c4Description="Executed &#xa;Trade" label="&lt;div style=&quot;text-align: left&quot;&gt;&lt;div style=&quot;text-align: center&quot;&gt;&lt;b&gt;%c4Description%&lt;/b&gt;&lt;/div&gt;&lt;div style=&quot;text-align: center&quot;&gt;[%c4Technology%]&lt;/div&gt;&lt;/div&gt;" id="4d2OGvLoM_RoSxxdBMcG-26">
          <mxCell style="endArrow=blockThin;html=1;fontSize=10;fontColor=#404040;strokeWidth=2;endFill=1;strokeColor=#6bbdf0;elbow=vertical;metaEdit=1;endSize=14;startSize=14;jumpStyle=arc;jumpSize=16;rounded=1;edgeStyle=orthogonalEdgeStyle;curved=0;exitX=0.913;exitY=1.017;exitDx=0;exitDy=0;exitPerimeter=0;entryX=0.983;entryY=0.956;entryDx=0;entryDy=0;entryPerimeter=0;flowAnimation=1;shadow=1;" parent="1" source="4d2OGvLoM_RoSxxdBMcG-51" target="4d2OGvLoM_RoSxxdBMcG-17" edge="1">
            <mxGeometry x="-0.7597" y="-59" width="240" relative="1" as="geometry">
              <mxPoint x="610" y="280" as="sourcePoint" />
              <mxPoint x="870" y="220" as="targetPoint" />
              <Array as="points">
                <mxPoint x="789" y="380" />
                <mxPoint x="910" y="380" />
                <mxPoint x="910" y="394" />
              </Array>
              <mxPoint as="offset" />
            </mxGeometry>
          </mxCell>
        </object>
        <object placeholders="1" c4Name="BFFX" c4Type="Component" c4Technology="C# BackgroundWorker" c4Description="Responsabilidade de orchestração de Order" label="&lt;font style=&quot;font-size: 16px&quot;&gt;&lt;b&gt;%c4Name%&lt;/b&gt;&lt;/font&gt;&lt;div&gt;[%c4Type%: %c4Technology%]&lt;/div&gt;&lt;br&gt;&lt;div&gt;&lt;font style=&quot;font-size: 11px&quot;&gt;%c4Description%&lt;/font&gt;&lt;/div&gt;" id="4d2OGvLoM_RoSxxdBMcG-27">
          <mxCell style="rounded=1;whiteSpace=wrap;html=1;labelBackgroundColor=none;fillColor=#6bbdf0;fontColor=#ffffff;align=center;arcSize=6;strokeColor=#2086C9;metaEdit=1;resizable=1;points=[[0.25,0,0],[0.5,0,0],[0.75,0,0],[1,0.25,0],[1,0.5,0],[1,0.75,0],[0.75,1,0],[0.5,1,0],[0.25,1,0],[0,0.75,0],[0,0.5,0],[0,0.25,0]];" parent="1" vertex="1">
            <mxGeometry x="170" y="923" width="520" height="80" as="geometry" />
          </mxCell>
        </object>
        <object placeholders="1" c4Type="Relationship" c4Technology="C# API Rest" c4Description="Ordem &#xa;Compra/Venda&#xa;" label="&lt;div style=&quot;text-align: left&quot;&gt;&lt;div style=&quot;text-align: center&quot;&gt;&lt;b&gt;%c4Description%&lt;/b&gt;&lt;/div&gt;&lt;div style=&quot;text-align: center&quot;&gt;[%c4Technology%]&lt;/div&gt;&lt;/div&gt;" id="4d2OGvLoM_RoSxxdBMcG-28">
          <mxCell style="endArrow=blockThin;html=1;fontSize=10;fontColor=#404040;strokeWidth=5;endFill=1;strokeColor=#0a0064;elbow=vertical;metaEdit=1;jumpStyle=arc;jumpSize=16;rounded=1;edgeStyle=orthogonalEdgeStyle;curved=0;entryX=0.5;entryY=1;entryDx=0;entryDy=0;entryPerimeter=0;exitX=0.508;exitY=0.007;exitDx=0;exitDy=0;exitPerimeter=0;fillColor=#000066;" parent="1" source="4d2OGvLoM_RoSxxdBMcG-27" target="4d2OGvLoM_RoSxxdBMcG-22" edge="1">
            <mxGeometry x="-0.5891" width="240" relative="1" as="geometry">
              <mxPoint x="410" y="903" as="sourcePoint" />
              <mxPoint x="482" y="642" as="targetPoint" />
              <Array as="points">
                <mxPoint x="435" y="904" />
              </Array>
              <mxPoint as="offset" />
            </mxGeometry>
          </mxCell>
        </object>
        <object placeholders="1" c4Type="Relationship" c4Technology="JSON" c4Description="Validação e&#xa;atualização de &#xa;Limite" label="&lt;div style=&quot;text-align: left; font-size: 8px;&quot;&gt;&lt;div style=&quot;text-align: center; font-size: 8px;&quot;&gt;&lt;b style=&quot;font-size: 8px;&quot;&gt;%c4Description%&lt;/b&gt;&lt;/div&gt;&lt;div style=&quot;text-align: center; font-size: 8px;&quot;&gt;[%c4Technology%]&lt;/div&gt;&lt;/div&gt;" id="4d2OGvLoM_RoSxxdBMcG-29">
          <mxCell style="endArrow=blockThin;html=1;fontSize=8;fontColor=#404040;strokeWidth=1;endFill=1;strokeColor=#828282;elbow=vertical;metaEdit=1;endSize=14;startSize=14;jumpStyle=arc;jumpSize=16;rounded=1;edgeStyle=orthogonalEdgeStyle;curved=0;exitX=0.46;exitY=1.003;exitDx=0;exitDy=0;exitPerimeter=0;entryX=0.5;entryY=0;entryDx=0;entryDy=0;entryPerimeter=0;" parent="1" source="4d2OGvLoM_RoSxxdBMcG-7" target="4d2OGvLoM_RoSxxdBMcG-9" edge="1">
            <mxGeometry x="-0.4029" y="-40" width="240" relative="1" as="geometry">
              <mxPoint x="60" y="530" as="sourcePoint" />
              <mxPoint x="250" y="770" as="targetPoint" />
              <Array as="points">
                <mxPoint x="140" y="605" />
                <mxPoint x="140" y="620" />
                <mxPoint x="140" y="670" />
                <mxPoint x="320" y="670" />
              </Array>
              <mxPoint as="offset" />
            </mxGeometry>
          </mxCell>
        </object>
        <object placeholders="1" c4Name="Tela Exchange" c4Type="Container" c4Technology="JavaScript, Angular etc." c4Description="Browser Exchange" label="&lt;font style=&quot;font-size: 16px&quot;&gt;&lt;b&gt;%c4Name%&lt;/b&gt;&lt;/font&gt;&lt;div&gt;[%c4Type%:&amp;nbsp;%c4Technology%]&lt;/div&gt;&lt;br&gt;&lt;div&gt;&lt;font style=&quot;font-size: 11px&quot;&gt;&lt;font color=&quot;#E6E6E6&quot;&gt;%c4Description%&lt;/font&gt;&lt;/div&gt;" id="4d2OGvLoM_RoSxxdBMcG-30">
          <mxCell style="shape=mxgraph.c4.webBrowserContainer2;whiteSpace=wrap;html=1;boundedLbl=1;rounded=0;labelBackgroundColor=none;strokeColor=#118ACD;fillColor=#23A2D9;strokeColor=#118ACD;strokeColor2=#0E7DAD;fontSize=12;fontColor=#ffffff;align=center;metaEdit=1;points=[[0.5,0,0],[1,0.25,0],[1,0.5,0],[1,0.75,0],[0.5,1,0],[0,0.75,0],[0,0.5,0],[0,0.25,0]];resizable=0;" parent="1" vertex="1">
            <mxGeometry x="318" y="1135" width="240" height="160" as="geometry" />
          </mxCell>
        </object>
        <object placeholders="1" c4Type="Relationship" c4Technology="JSON" c4Description="Validação e&#xa;atualização de &#xa;Posição" label="&lt;div style=&quot;text-align: left; font-size: 8px;&quot;&gt;&lt;div style=&quot;text-align: center; font-size: 8px;&quot;&gt;&lt;b style=&quot;font-size: 8px;&quot;&gt;%c4Description%&lt;/b&gt;&lt;/div&gt;&lt;div style=&quot;text-align: center; font-size: 8px;&quot;&gt;[%c4Technology%]&lt;/div&gt;&lt;/div&gt;" id="4d2OGvLoM_RoSxxdBMcG-31">
          <mxCell style="endArrow=blockThin;html=1;fontSize=8;fontColor=#404040;strokeWidth=1;endFill=1;strokeColor=#828282;elbow=vertical;metaEdit=1;endSize=14;startSize=14;jumpStyle=arc;jumpSize=16;rounded=1;edgeStyle=orthogonalEdgeStyle;curved=0;exitX=0.46;exitY=1.003;exitDx=0;exitDy=0;exitPerimeter=0;entryX=0.571;entryY=0.014;entryDx=0;entryDy=0;entryPerimeter=0;" parent="1" target="4d2OGvLoM_RoSxxdBMcG-10" edge="1">
            <mxGeometry x="-0.3892" y="30" width="240" relative="1" as="geometry">
              <mxPoint x="730" y="520" as="sourcePoint" />
              <mxPoint x="840" y="770" as="targetPoint" />
              <Array as="points">
                <mxPoint x="730" y="670" />
                <mxPoint x="560" y="670" />
              </Array>
              <mxPoint as="offset" />
            </mxGeometry>
          </mxCell>
        </object>
        <object placeholders="1" c4Type="Relationship" c4Technology="SignalR&#xa;APIRest" c4Description="Orders, &#xa;Limit, &#xa;Position&#xa;" label="&lt;div style=&quot;text-align: left&quot;&gt;&lt;div style=&quot;text-align: center&quot;&gt;&lt;b&gt;%c4Description%&lt;/b&gt;&lt;/div&gt;&lt;div style=&quot;text-align: center&quot;&gt;[%c4Technology%]&lt;/div&gt;&lt;/div&gt;" id="4d2OGvLoM_RoSxxdBMcG-32">
          <mxCell style="endArrow=blockThin;html=1;fontSize=10;fontColor=#404040;strokeWidth=1;endFill=1;strokeColor=#828282;elbow=vertical;metaEdit=1;endSize=14;startSize=14;jumpStyle=arc;jumpSize=16;rounded=1;edgeStyle=orthogonalEdgeStyle;curved=0;entryX=0.909;entryY=0.004;entryDx=0;entryDy=0;entryPerimeter=0;exitX=0.724;exitY=1.003;exitDx=0;exitDy=0;exitPerimeter=0;" parent="1" source="4d2OGvLoM_RoSxxdBMcG-27" target="4d2OGvLoM_RoSxxdBMcG-30" edge="1">
            <mxGeometry x="-0.4843" y="53" width="240" relative="1" as="geometry">
              <mxPoint x="400" y="1010" as="sourcePoint" />
              <mxPoint x="443.5" y="1003" as="targetPoint" />
              <Array as="points">
                <mxPoint x="547" y="1050" />
                <mxPoint x="536" y="1050" />
              </Array>
              <mxPoint as="offset" />
            </mxGeometry>
          </mxCell>
        </object>
        <object placeholders="1" c4Name="AuditX Engine" c4Type="Component" c4Technology="C# BackgroundWorker" c4Description="Responsabilidade de Envio de ordens e recebimento de exectution Report" label="&lt;font style=&quot;font-size: 16px&quot;&gt;&lt;b&gt;%c4Name%&lt;/b&gt;&lt;/font&gt;&lt;div&gt;[%c4Type%: %c4Technology%]&lt;/div&gt;&lt;br&gt;&lt;div&gt;&lt;font style=&quot;font-size: 11px&quot;&gt;%c4Description%&lt;/font&gt;&lt;/div&gt;" id="4d2OGvLoM_RoSxxdBMcG-33">
          <mxCell style="rounded=1;whiteSpace=wrap;html=1;labelBackgroundColor=none;fillColor=#63BEF2;fontColor=#ffffff;align=center;arcSize=6;strokeColor=#2086C9;metaEdit=1;resizable=0;points=[[0.25,0,0],[0.5,0,0],[0.75,0,0],[1,0.25,0],[1,0.5,0],[1,0.75,0],[0.75,1,0],[0.5,1,0],[0.25,1,0],[0,0.75,0],[0,0.5,0],[0,0.25,0]];" parent="1" vertex="1">
            <mxGeometry x="880" y="923" width="240" height="120" as="geometry" />
          </mxCell>
        </object>
        <object placeholders="1" c4Name="AuditX" c4Type="Container" c4Technology="Postgree" c4Description="Responsabilidade de armazanar as ordens e atualizar seus status" label="&lt;font style=&quot;font-size: 11px;&quot;&gt;&lt;b style=&quot;font-size: 11px;&quot;&gt;%c4Name%&lt;/b&gt;&lt;/font&gt;&lt;div style=&quot;font-size: 11px;&quot;&gt;[%c4Type%:&amp;nbsp;%c4Technology%]&lt;/div&gt;&lt;br style=&quot;font-size: 11px;&quot;&gt;&lt;div style=&quot;font-size: 11px;&quot;&gt;&lt;font style=&quot;font-size: 11px&quot;&gt;&lt;font color=&quot;#E6E6E6&quot; style=&quot;font-size: 11px;&quot;&gt;%c4Description%&lt;/font&gt;&lt;/font&gt;&lt;/div&gt;" id="4d2OGvLoM_RoSxxdBMcG-34">
          <mxCell style="shape=cylinder3;size=15;whiteSpace=wrap;html=1;boundedLbl=1;rounded=0;labelBackgroundColor=none;fillColor=#36a1d7;fontSize=11;fontColor=#ffffff;align=center;strokeColor=#0E7DAD;metaEdit=1;points=[[0.5,0,0],[1,0.25,0],[1,0.5,0],[1,0.75,0],[0.5,1,0],[0,0.75,0],[0,0.5,0],[0,0.25,0]];resizable=1;" parent="1" vertex="1">
            <mxGeometry x="1210" y="933" width="190" height="100" as="geometry" />
          </mxCell>
        </object>
        <object placeholders="1" c4Type="Relationship" c4Technology="Protobuf&#xa;masstransit" c4Description="Logs&#xa;Auditoria&#xa;do OMS&#xa;" label="&lt;div style=&quot;text-align: left; font-size: 8px;&quot;&gt;&lt;div style=&quot;text-align: center; font-size: 8px;&quot;&gt;&lt;b style=&quot;font-size: 8px;&quot;&gt;%c4Description%&lt;/b&gt;&lt;/div&gt;&lt;div style=&quot;text-align: center; font-size: 8px;&quot;&gt;[%c4Technology%]&lt;/div&gt;&lt;/div&gt;" id="4d2OGvLoM_RoSxxdBMcG-35">
          <mxCell style="endArrow=blockThin;html=1;fontSize=8;fontColor=#404040;strokeWidth=2;endFill=1;strokeColor=#8f8f8f;elbow=vertical;metaEdit=1;endSize=14;startSize=14;jumpStyle=arc;jumpSize=16;rounded=1;edgeStyle=orthogonalEdgeStyle;curved=0;entryX=1.006;entryY=0.059;entryDx=0;entryDy=0;entryPerimeter=0;flowAnimation=1;shadow=1;" parent="1" target="4d2OGvLoM_RoSxxdBMcG-17" edge="1">
            <mxGeometry x="0.0694" y="-25" width="240" relative="1" as="geometry">
              <mxPoint x="840" y="800" as="sourcePoint" />
              <mxPoint x="930" y="820" as="targetPoint" />
              <Array as="points">
                <mxPoint x="890" y="800" />
                <mxPoint x="890" y="805" />
              </Array>
              <mxPoint as="offset" />
            </mxGeometry>
          </mxCell>
        </object>
        <object placeholders="1" c4Type="Relationship" c4Technology="Protobuf&#xa;masstransit" c4Description="Logs&#xa;Auditoria&#xa;do OMS&#xa;" label="&lt;div style=&quot;text-align: left; font-size: 8px;&quot;&gt;&lt;div style=&quot;text-align: center; font-size: 8px;&quot;&gt;&lt;b style=&quot;font-size: 8px;&quot;&gt;%c4Description%&lt;/b&gt;&lt;/div&gt;&lt;div style=&quot;text-align: center; font-size: 8px;&quot;&gt;[%c4Technology%]&lt;/div&gt;&lt;/div&gt;" id="4d2OGvLoM_RoSxxdBMcG-36">
          <mxCell style="endArrow=blockThin;html=1;fontSize=8;fontColor=#404040;strokeWidth=2;endFill=1;strokeColor=#8f8f8f;elbow=vertical;metaEdit=1;endSize=14;startSize=14;jumpStyle=arc;jumpSize=16;rounded=1;edgeStyle=orthogonalEdgeStyle;curved=0;exitX=0.5;exitY=0;exitDx=0;exitDy=0;exitPerimeter=0;shadow=1;flowAnimation=1;" parent="1" source="4d2OGvLoM_RoSxxdBMcG-17" target="4d2OGvLoM_RoSxxdBMcG-33" edge="1">
            <mxGeometry x="-0.0543" y="30" width="240" relative="1" as="geometry">
              <mxPoint x="1040" y="780" as="sourcePoint" />
              <mxPoint x="1138" y="785" as="targetPoint" />
              <Array as="points">
                <mxPoint x="991" y="860" />
                <mxPoint x="1000" y="860" />
              </Array>
              <mxPoint as="offset" />
            </mxGeometry>
          </mxCell>
        </object>
        <object placeholders="1" c4Type="Relationship" c4Technology="Redis" c4Description="Limit" label="&lt;div style=&quot;text-align: left; font-size: 10px;&quot;&gt;&lt;div style=&quot;text-align: center; font-size: 10px;&quot;&gt;&lt;b style=&quot;font-size: 10px;&quot;&gt;%c4Description%&lt;/b&gt;&lt;/div&gt;&lt;div style=&quot;text-align: center; font-size: 10px;&quot;&gt;[%c4Technology%]&lt;/div&gt;&lt;/div&gt;" id="4d2OGvLoM_RoSxxdBMcG-37">
          <mxCell style="endArrow=blockThin;html=1;fontSize=10;fontColor=#404040;strokeWidth=1;endFill=1;strokeColor=#828282;elbow=vertical;metaEdit=1;endSize=14;startSize=14;jumpStyle=arc;jumpSize=16;rounded=1;edgeStyle=orthogonalEdgeStyle;curved=0;exitX=0.5;exitY=1;exitDx=0;exitDy=0;exitPerimeter=0;entryX=0.25;entryY=0;entryDx=0;entryDy=0;entryPerimeter=0;" parent="1" source="4d2OGvLoM_RoSxxdBMcG-9" target="4d2OGvLoM_RoSxxdBMcG-27" edge="1">
            <mxGeometry x="-0.1727" y="30" width="240" relative="1" as="geometry">
              <mxPoint x="318" y="820" as="sourcePoint" />
              <mxPoint x="327" y="911" as="targetPoint" />
              <Array as="points">
                <mxPoint x="300" y="818" />
              </Array>
              <mxPoint as="offset" />
            </mxGeometry>
          </mxCell>
        </object>
        <object placeholders="1" c4Type="Relationship" c4Technology="redis" c4Description="Position" label="&lt;div style=&quot;text-align: left; font-size: 10px;&quot;&gt;&lt;div style=&quot;text-align: center; font-size: 10px;&quot;&gt;&lt;b style=&quot;font-size: 10px;&quot;&gt;%c4Description%&lt;/b&gt;&lt;/div&gt;&lt;div style=&quot;text-align: center; font-size: 10px;&quot;&gt;[%c4Technology%]&lt;/div&gt;&lt;/div&gt;" id="4d2OGvLoM_RoSxxdBMcG-38">
          <mxCell style="endArrow=blockThin;html=1;fontSize=10;fontColor=#404040;strokeWidth=1;endFill=1;strokeColor=#828282;elbow=vertical;metaEdit=1;endSize=14;startSize=14;jumpStyle=arc;jumpSize=16;rounded=1;edgeStyle=orthogonalEdgeStyle;curved=0;exitX=0.5;exitY=1;exitDx=0;exitDy=0;exitPerimeter=0;entryX=0.75;entryY=0;entryDx=0;entryDy=0;entryPerimeter=0;" parent="1" source="4d2OGvLoM_RoSxxdBMcG-10" target="4d2OGvLoM_RoSxxdBMcG-27" edge="1">
            <mxGeometry x="-0.2479" y="30" width="240" relative="1" as="geometry">
              <mxPoint x="549" y="816" as="sourcePoint" />
              <mxPoint x="558" y="907" as="targetPoint" />
              <Array as="points">
                <mxPoint x="560" y="818" />
              </Array>
              <mxPoint as="offset" />
            </mxGeometry>
          </mxCell>
        </object>
        <object placeholders="1" c4Name="Limit" c4Type="Container" c4Technology="Postgree" c4Description="Responsabilidade de Storage &#xa;de Limites" label="&lt;font style=&quot;font-size: 8px;&quot;&gt;&lt;b style=&quot;font-size: 8px;&quot;&gt;%c4Name%&lt;/b&gt;&lt;/font&gt;&lt;div style=&quot;font-size: 8px;&quot;&gt;[%c4Type%:&amp;nbsp;%c4Technology%]&lt;/div&gt;&lt;br style=&quot;font-size: 8px;&quot;&gt;&lt;div style=&quot;font-size: 8px;&quot;&gt;&lt;font style=&quot;font-size: 8px;&quot;&gt;&lt;font style=&quot;font-size: 8px;&quot; color=&quot;#E6E6E6&quot;&gt;%c4Description%&lt;/font&gt;&lt;/font&gt;&lt;/div&gt;" id="4d2OGvLoM_RoSxxdBMcG-39">
          <mxCell style="shape=cylinder3;size=15;whiteSpace=wrap;html=1;boundedLbl=1;rounded=0;labelBackgroundColor=none;fillColor=#23A2D9;fontSize=8;fontColor=#ffffff;align=center;strokeColor=#0E7DAD;metaEdit=1;points=[[0.5,0,0],[1,0.25,0],[1,0.5,0],[1,0.75,0],[0.5,1,0],[0,0.75,0],[0,0.5,0],[0,0.25,0]];resizable=1;" parent="1" vertex="1">
            <mxGeometry x="290" y="450" width="110" height="70" as="geometry" />
          </mxCell>
        </object>
        <object placeholders="1" c4Name="Position" c4Type="Container" c4Technology="Postgree" c4Description="Responsabilidade de Storage &#xa;de Position" label="&lt;font style=&quot;font-size: 8px;&quot;&gt;&lt;b style=&quot;font-size: 8px;&quot;&gt;%c4Name%&lt;/b&gt;&lt;/font&gt;&lt;div style=&quot;font-size: 8px;&quot;&gt;[%c4Type%:&amp;nbsp;%c4Technology%]&lt;/div&gt;&lt;br style=&quot;font-size: 8px;&quot;&gt;&lt;div style=&quot;font-size: 8px;&quot;&gt;&lt;font style=&quot;font-size: 8px;&quot;&gt;&lt;font style=&quot;font-size: 8px;&quot; color=&quot;#E6E6E6&quot;&gt;%c4Description%&lt;/font&gt;&lt;/font&gt;&lt;/div&gt;" id="4d2OGvLoM_RoSxxdBMcG-40">
          <mxCell style="shape=cylinder3;size=15;whiteSpace=wrap;html=1;boundedLbl=1;rounded=0;labelBackgroundColor=none;fillColor=#23A2D9;fontSize=8;fontColor=#ffffff;align=center;strokeColor=#0E7DAD;metaEdit=1;points=[[0.5,0,0],[1,0.25,0],[1,0.5,0],[1,0.75,0],[0.5,1,0],[0,0.75,0],[0,0.5,0],[0,0.25,0]];resizable=1;" parent="1" vertex="1">
            <mxGeometry x="448" y="450" width="110" height="70" as="geometry" />
          </mxCell>
        </object>
        <object placeholders="1" c4Type="Relationship" c4Technology="EntityFramework" c4Description="Position" label="&lt;div style=&quot;text-align: left; font-size: 8px;&quot;&gt;&lt;div style=&quot;text-align: center; font-size: 8px;&quot;&gt;&lt;b style=&quot;font-size: 8px;&quot;&gt;%c4Description%&lt;/b&gt;&lt;/div&gt;&lt;div style=&quot;text-align: center; font-size: 8px;&quot;&gt;[%c4Technology%]&lt;/div&gt;&lt;/div&gt;" id="4d2OGvLoM_RoSxxdBMcG-41">
          <mxCell style="endArrow=blockThin;html=1;fontSize=8;fontColor=#404040;strokeWidth=1;endFill=1;strokeColor=#828282;elbow=vertical;metaEdit=1;endSize=14;startSize=14;jumpStyle=arc;jumpSize=16;rounded=1;edgeStyle=orthogonalEdgeStyle;curved=0;exitX=0;exitY=0.118;exitDx=0;exitDy=0;exitPerimeter=0;entryX=0.5;entryY=0;entryDx=0;entryDy=0;entryPerimeter=0;" parent="1" source="4d2OGvLoM_RoSxxdBMcG-8" target="4d2OGvLoM_RoSxxdBMcG-40" edge="1">
            <mxGeometry x="-0.3794" y="10" width="240" relative="1" as="geometry">
              <mxPoint x="550" y="410" as="sourcePoint" />
              <mxPoint x="448" y="414" as="targetPoint" />
              <Array as="points">
                <mxPoint x="580" y="410" />
                <mxPoint x="503" y="410" />
              </Array>
              <mxPoint as="offset" />
            </mxGeometry>
          </mxCell>
        </object>
        <object placeholders="1" c4Type="Relationship" c4Technology="EntityFramework" c4Description="Limit" label="&lt;div style=&quot;text-align: left; font-size: 8px;&quot;&gt;&lt;div style=&quot;text-align: center; font-size: 8px;&quot;&gt;&lt;b style=&quot;font-size: 8px;&quot;&gt;%c4Description%&lt;/b&gt;&lt;/div&gt;&lt;div style=&quot;text-align: center; font-size: 8px;&quot;&gt;[%c4Technology%]&lt;/div&gt;&lt;/div&gt;" id="4d2OGvLoM_RoSxxdBMcG-42">
          <mxCell style="endArrow=blockThin;html=1;fontSize=8;fontColor=#404040;strokeWidth=1;endFill=1;strokeColor=#828282;elbow=vertical;metaEdit=1;endSize=14;startSize=14;jumpStyle=arc;jumpSize=16;rounded=1;edgeStyle=orthogonalEdgeStyle;curved=0;exitX=0.997;exitY=0.154;exitDx=0;exitDy=0;exitPerimeter=0;entryX=0.5;entryY=0;entryDx=0;entryDy=0;entryPerimeter=0;" parent="1" source="4d2OGvLoM_RoSxxdBMcG-7" target="4d2OGvLoM_RoSxxdBMcG-39" edge="1">
            <mxGeometry x="-0.2935" y="-10" width="240" relative="1" as="geometry">
              <mxPoint x="367" y="414" as="sourcePoint" />
              <mxPoint x="360" y="450" as="targetPoint" />
              <Array as="points">
                <mxPoint x="280" y="419" />
                <mxPoint x="345" y="419" />
              </Array>
              <mxPoint as="offset" />
            </mxGeometry>
          </mxCell>
        </object>
        <object placeholders="1" c4Type="Relationship" c4Technology="EntityFramework" c4Description="Logs&#xa;Auditoria&#xa;do OMS" label="&lt;div style=&quot;text-align: left; font-size: 8px;&quot;&gt;&lt;div style=&quot;text-align: center; font-size: 8px;&quot;&gt;&lt;b style=&quot;font-size: 8px;&quot;&gt;%c4Description%&lt;/b&gt;&lt;/div&gt;&lt;div style=&quot;text-align: center; font-size: 8px;&quot;&gt;[%c4Technology%]&lt;/div&gt;&lt;/div&gt;" id="4d2OGvLoM_RoSxxdBMcG-43">
          <mxCell style="endArrow=blockThin;html=1;fontSize=8;fontColor=#404040;strokeWidth=1;endFill=1;strokeColor=#828282;elbow=vertical;metaEdit=1;endSize=14;startSize=14;jumpStyle=arc;jumpSize=16;rounded=1;edgeStyle=orthogonalEdgeStyle;curved=0;exitX=1.003;exitY=0.524;exitDx=0;exitDy=0;exitPerimeter=0;entryX=0.008;entryY=0.409;entryDx=0;entryDy=0;entryPerimeter=0;" parent="1" source="4d2OGvLoM_RoSxxdBMcG-33" target="4d2OGvLoM_RoSxxdBMcG-34" edge="1">
            <mxGeometry x="-0.2183" y="30" width="240" relative="1" as="geometry">
              <mxPoint x="1001" y="842" as="sourcePoint" />
              <mxPoint x="1010" y="933" as="targetPoint" />
              <Array as="points">
                <mxPoint x="1130" y="986" />
                <mxPoint x="1130" y="990" />
                <mxPoint x="1190" y="990" />
                <mxPoint x="1190" y="974" />
              </Array>
              <mxPoint as="offset" />
            </mxGeometry>
          </mxCell>
        </object>
        <object placeholders="1" c4Name="Inconsistency Container" c4Type="ContainerScopeBoundary" c4Application="Container" label="&lt;font style=&quot;font-size: 16px&quot;&gt;&lt;b&gt;&lt;div style=&quot;text-align: left&quot;&gt;%c4Name%&lt;/div&gt;&lt;/b&gt;&lt;/font&gt;&lt;div style=&quot;text-align: left&quot;&gt;[%c4Application%]&lt;/div&gt;" id="4d2OGvLoM_RoSxxdBMcG-44">
          <mxCell style="rounded=1;fontSize=11;whiteSpace=wrap;html=1;dashed=1;arcSize=20;fillColor=#d9d9d9;strokeColor=#666666;fontColor=#333333;labelBackgroundColor=none;align=left;verticalAlign=bottom;labelBorderColor=none;spacingTop=0;spacing=10;dashPattern=8 4;metaEdit=1;rotatable=0;perimeter=rectanglePerimeter;noLabel=0;labelPadding=0;allowArrows=0;connectable=0;expand=0;recursiveResize=0;editable=1;pointerEvents=0;absoluteArcSize=1;points=[[0.25,0,0],[0.5,0,0],[0.75,0,0],[1,0.25,0],[1,0.5,0],[1,0.75,0],[0.75,1,0],[0.5,1,0],[0.25,1,0],[0,0.75,0],[0,0.5,0],[0,0.25,0]];" parent="1" vertex="1">
            <mxGeometry x="-576" y="900" width="570" height="198" as="geometry" />
          </mxCell>
        </object>
        <object placeholders="1" c4Name="InconsistencyX Engine" c4Type="Component" c4Technology="C# BackgroundWorker" c4Description="Responsabilidade de recebimento&#xa;de mensagens de inconsistency" label="&lt;font style=&quot;font-size: 16px&quot;&gt;&lt;b&gt;%c4Name%&lt;/b&gt;&lt;/font&gt;&lt;div&gt;[%c4Type%: %c4Technology%]&lt;/div&gt;&lt;br&gt;&lt;div&gt;&lt;font style=&quot;font-size: 11px&quot;&gt;%c4Description%&lt;/font&gt;&lt;/div&gt;" id="4d2OGvLoM_RoSxxdBMcG-45">
          <mxCell style="rounded=1;whiteSpace=wrap;html=1;labelBackgroundColor=none;fillColor=#63BEF2;fontColor=#ffffff;align=center;arcSize=6;strokeColor=#2086C9;metaEdit=1;resizable=0;points=[[0.25,0,0],[0.5,0,0],[0.75,0,0],[1,0.25,0],[1,0.5,0],[1,0.75,0],[0.75,1,0],[0.5,1,0],[0.25,1,0],[0,0.75,0],[0,0.5,0],[0,0.25,0]];" parent="1" vertex="1">
            <mxGeometry x="-300" y="920" width="240" height="120" as="geometry" />
          </mxCell>
        </object>
        <object placeholders="1" c4Name="InconsistencyX" c4Type="Container" c4Technology="Postgree" c4Description="Responsabilidade de &#xa;storage de inconsistency" label="&lt;font style=&quot;font-size: 11px;&quot;&gt;&lt;b style=&quot;font-size: 11px;&quot;&gt;%c4Name%&lt;/b&gt;&lt;/font&gt;&lt;div style=&quot;font-size: 11px;&quot;&gt;[%c4Type%:&amp;nbsp;%c4Technology%]&lt;/div&gt;&lt;br style=&quot;font-size: 11px;&quot;&gt;&lt;div style=&quot;font-size: 11px;&quot;&gt;&lt;font style=&quot;font-size: 11px&quot;&gt;&lt;font color=&quot;#E6E6E6&quot; style=&quot;font-size: 11px;&quot;&gt;%c4Description%&lt;/font&gt;&lt;/font&gt;&lt;/div&gt;" id="4d2OGvLoM_RoSxxdBMcG-46">
          <mxCell style="shape=cylinder3;size=15;whiteSpace=wrap;html=1;boundedLbl=1;rounded=0;labelBackgroundColor=none;fillColor=#36a1d7;fontSize=11;fontColor=#ffffff;align=center;strokeColor=#0E7DAD;metaEdit=1;points=[[0.5,0,0],[1,0.25,0],[1,0.5,0],[1,0.75,0],[0.5,1,0],[0,0.75,0],[0,0.5,0],[0,0.25,0]];resizable=1;" parent="1" vertex="1">
            <mxGeometry x="-580" y="923" width="190" height="100" as="geometry" />
          </mxCell>
        </object>
        <object placeholders="1" c4Type="Relationship" c4Technology="Masstransit" c4Description="Logs&#xa;Inconsistency" label="&lt;div style=&quot;text-align: left; font-size: 8px;&quot;&gt;&lt;div style=&quot;text-align: center; font-size: 8px;&quot;&gt;&lt;b style=&quot;font-size: 8px;&quot;&gt;%c4Description%&lt;/b&gt;&lt;/div&gt;&lt;div style=&quot;text-align: center; font-size: 8px;&quot;&gt;[%c4Technology%]&lt;/div&gt;&lt;/div&gt;" id="4d2OGvLoM_RoSxxdBMcG-47">
          <mxCell style="endArrow=blockThin;html=1;fontSize=8;fontColor=#404040;strokeWidth=2;endFill=1;strokeColor=#828282;elbow=vertical;metaEdit=1;endSize=14;startSize=14;jumpStyle=arc;jumpSize=16;rounded=1;edgeStyle=orthogonalEdgeStyle;curved=0;entryX=0.676;entryY=0.014;entryDx=0;entryDy=0;entryPerimeter=0;flowAnimation=1;shadow=1;" parent="1" source="4d2OGvLoM_RoSxxdBMcG-11" target="4d2OGvLoM_RoSxxdBMcG-45" edge="1">
            <mxGeometry x="-0.0543" y="30" width="240" relative="1" as="geometry">
              <mxPoint x="-450" y="688" as="sourcePoint" />
              <mxPoint x="-291" y="839" as="targetPoint" />
              <Array as="points">
                <mxPoint x="-140" y="900" />
                <mxPoint x="-138" y="900" />
              </Array>
              <mxPoint as="offset" />
            </mxGeometry>
          </mxCell>
        </object>
        <object placeholders="1" c4Type="Relationship" c4Technology="EntityFramework" c4Description="Logs&#xa;Inconsistency" label="&lt;div style=&quot;text-align: left; font-size: 8px;&quot;&gt;&lt;div style=&quot;text-align: center; font-size: 8px;&quot;&gt;&lt;b style=&quot;font-size: 8px;&quot;&gt;%c4Description%&lt;/b&gt;&lt;/div&gt;&lt;div style=&quot;text-align: center; font-size: 8px;&quot;&gt;[%c4Technology%]&lt;/div&gt;&lt;/div&gt;" id="4d2OGvLoM_RoSxxdBMcG-48">
          <mxCell style="endArrow=blockThin;html=1;fontSize=8;fontColor=#404040;strokeWidth=1;endFill=1;strokeColor=#828282;elbow=vertical;metaEdit=1;endSize=14;startSize=14;jumpStyle=arc;jumpSize=16;rounded=1;edgeStyle=orthogonalEdgeStyle;curved=0;" parent="1" target="4d2OGvLoM_RoSxxdBMcG-46" edge="1">
            <mxGeometry x="-0.2183" y="30" width="240" relative="1" as="geometry">
              <mxPoint x="-300" y="960" as="sourcePoint" />
              <mxPoint x="-440" y="930" as="targetPoint" />
              <Array as="points">
                <mxPoint x="-360" y="960" />
                <mxPoint x="-360" y="971" />
              </Array>
              <mxPoint as="offset" />
            </mxGeometry>
          </mxCell>
        </object>
        <object placeholders="1" c4Type="Relationship" c4Technology="Masstransit" c4Description="Logs&#xa;Inconsistency" label="&lt;div style=&quot;text-align: left; font-size: 8px;&quot;&gt;&lt;div style=&quot;text-align: center; font-size: 8px;&quot;&gt;&lt;b style=&quot;font-size: 8px;&quot;&gt;%c4Description%&lt;/b&gt;&lt;/div&gt;&lt;div style=&quot;text-align: center; font-size: 8px;&quot;&gt;[%c4Technology%]&lt;/div&gt;&lt;/div&gt;" id="4d2OGvLoM_RoSxxdBMcG-49">
          <mxCell style="endArrow=blockThin;html=1;fontSize=8;fontColor=#404040;strokeWidth=2;endFill=1;strokeColor=#828282;elbow=vertical;metaEdit=1;endSize=14;startSize=14;jumpStyle=arc;jumpSize=16;rounded=1;edgeStyle=orthogonalEdgeStyle;curved=0;entryX=0.995;entryY=0.517;entryDx=0;entryDy=0;entryPerimeter=0;flowAnimation=1;shadow=1;" parent="1" edge="1">
            <mxGeometry x="-0.3322" y="-20" width="240" relative="1" as="geometry">
              <mxPoint x="10" y="773" as="sourcePoint" />
              <mxPoint x="-88.27500000000009" y="794.4680000000001" as="targetPoint" />
              <Array as="points">
                <mxPoint x="-60" y="773" />
                <mxPoint x="-60" y="795" />
              </Array>
              <mxPoint as="offset" />
            </mxGeometry>
          </mxCell>
        </object>
        <object placeholders="1" c4Name="Settlement&#xa;Trade X Engine" c4Type="Component" c4Technology="C# BackgroundWorker&#xa;SignalR" c4Description="Responsabilidade receber ordens e enviar eventos para o Position" label="&lt;font style=&quot;font-size: 16px&quot;&gt;&lt;b&gt;%c4Name%&lt;/b&gt;&lt;/font&gt;&lt;div&gt;[%c4Type%: %c4Technology%]&lt;/div&gt;&lt;br&gt;&lt;div&gt;&lt;font style=&quot;font-size: 11px&quot;&gt;%c4Description%&lt;/font&gt;&lt;/div&gt;" id="4d2OGvLoM_RoSxxdBMcG-50">
          <mxCell style="rounded=1;whiteSpace=wrap;html=1;labelBackgroundColor=none;fillColor=#63BEF2;fontColor=#ffffff;align=center;arcSize=6;strokeColor=#2086C9;metaEdit=1;resizable=0;points=[[0.25,0,0],[0.5,0,0],[0.75,0,0],[1,0.25,0],[1,0.5,0],[1,0.75,0],[0.75,1,0],[0.5,1,0],[0.25,1,0],[0,0.75,0],[0,0.5,0],[0,0.25,0]];" parent="1" vertex="1">
            <mxGeometry x="859" y="190" width="240" height="120" as="geometry" />
          </mxCell>
        </object>
        <object placeholders="1" c4Name="Book Engine" c4Type="Component" c4Technology="C# BackgroundWorker&#xa;FIX" c4Description="Responsabilidade de geração de &#xa;sinal de Sumary, Chart, OrderNegotiated e&#xa;Executed Trades" label="&lt;font style=&quot;font-size: 16px&quot;&gt;&lt;b&gt;%c4Name%&lt;/b&gt;&lt;/font&gt;&lt;div&gt;[%c4Type%: %c4Technology%]&lt;/div&gt;&lt;br&gt;&lt;div&gt;&lt;font style=&quot;font-size: 11px&quot;&gt;%c4Description%&lt;/font&gt;&lt;/div&gt;" id="4d2OGvLoM_RoSxxdBMcG-51">
          <mxCell style="rounded=1;whiteSpace=wrap;html=1;labelBackgroundColor=none;fillColor=#63BEF2;fontColor=#ffffff;align=center;arcSize=6;strokeColor=#2086C9;metaEdit=1;resizable=0;points=[[0.25,0,0],[0.5,0,0],[0.75,0,0],[1,0.25,0],[1,0.5,0],[1,0.75,0],[0.75,1,0],[0.5,1,0],[0.25,1,0],[0,0.75,0],[0,0.5,0],[0,0.25,0]];" parent="1" vertex="1">
            <mxGeometry x="570" y="191" width="240" height="120" as="geometry" />
          </mxCell>
        </object>
        <object placeholders="1" c4Type="Relationship" c4Technology="FIX" c4Description="MarketData&#xa;Executed Trade" label="&lt;div style=&quot;text-align: left&quot;&gt;&lt;div style=&quot;text-align: center&quot;&gt;&lt;b&gt;%c4Description%&lt;/b&gt;&lt;/div&gt;&lt;div style=&quot;text-align: center&quot;&gt;[%c4Technology%]&lt;/div&gt;&lt;/div&gt;" id="4d2OGvLoM_RoSxxdBMcG-52">
          <mxCell style="endArrow=blockThin;html=1;fontSize=10;fontColor=#404040;strokeWidth=2;endFill=1;strokeColor=#6bbdf0;elbow=vertical;metaEdit=1;endSize=14;startSize=14;jumpStyle=arc;jumpSize=16;rounded=1;edgeStyle=orthogonalEdgeStyle;curved=0;flowAnimation=1;shadow=1;exitX=0.986;exitY=1.02;exitDx=0;exitDy=0;exitPerimeter=0;" parent="1" target="4d2OGvLoM_RoSxxdBMcG-51" edge="1">
            <mxGeometry width="240" relative="1" as="geometry">
              <mxPoint x="541.6399999999994" y="128.39999999999964" as="sourcePoint" />
              <mxPoint x="780" y="190" as="targetPoint" />
              <Array as="points">
                <mxPoint x="542" y="140" />
                <mxPoint x="542" y="170" />
                <mxPoint x="780" y="170" />
              </Array>
            </mxGeometry>
          </mxCell>
        </object>
        <object placeholders="1" c4Type="Relationship" c4Technology="Protobuf&#xa;masstransit" c4Description="Executed Trade" label="&lt;div style=&quot;text-align: left; font-size: 8px;&quot;&gt;&lt;div style=&quot;text-align: center; font-size: 8px;&quot;&gt;&lt;b style=&quot;font-size: 8px;&quot;&gt;%c4Description%&lt;/b&gt;&lt;/div&gt;&lt;div style=&quot;text-align: center; font-size: 8px;&quot;&gt;[%c4Technology%]&lt;/div&gt;&lt;/div&gt;" id="4d2OGvLoM_RoSxxdBMcG-53">
          <mxCell style="endArrow=blockThin;html=1;fontSize=8;fontColor=#404040;strokeWidth=2;endFill=1;strokeColor=#6bbdf0;elbow=vertical;metaEdit=1;endSize=14;startSize=14;jumpStyle=arc;jumpSize=16;rounded=1;edgeStyle=orthogonalEdgeStyle;curved=0;flowAnimation=1;exitX=-0.023;exitY=0.95;exitDx=0;exitDy=0;exitPerimeter=0;entryX=1;entryY=0.75;entryDx=0;entryDy=0;entryPerimeter=0;" parent="1" source="4d2OGvLoM_RoSxxdBMcG-17" target="4d2OGvLoM_RoSxxdBMcG-50" edge="1">
            <mxGeometry x="0.5599" y="20" width="240" relative="1" as="geometry">
              <mxPoint x="1050" y="490" as="sourcePoint" />
              <mxPoint x="1140" y="190" as="targetPoint" />
              <Array as="points">
                <mxPoint x="1130" y="397" />
                <mxPoint x="1130" y="280" />
              </Array>
              <mxPoint as="offset" />
            </mxGeometry>
          </mxCell>
        </object>
        <object placeholders="1" c4Type="Relationship" c4Technology="C# API Rest" c4Description="Ordem &#xa;Compra/Venda&#xa;" label="&lt;div style=&quot;text-align: left&quot;&gt;&lt;div style=&quot;text-align: center&quot;&gt;&lt;b&gt;%c4Description%&lt;/b&gt;&lt;/div&gt;&lt;div style=&quot;text-align: center&quot;&gt;[%c4Technology%]&lt;/div&gt;&lt;/div&gt;" id="4d2OGvLoM_RoSxxdBMcG-54">
          <mxCell style="endArrow=blockThin;html=1;fontSize=10;fontColor=#404040;strokeWidth=5;endFill=1;strokeColor=#0a0064;elbow=vertical;metaEdit=1;jumpStyle=arc;jumpSize=16;rounded=1;edgeStyle=orthogonalEdgeStyle;curved=0;entryX=0.25;entryY=1;entryDx=0;entryDy=0;entryPerimeter=0;fillColor=#000066;exitX=0.232;exitY=0.017;exitDx=0;exitDy=0;exitPerimeter=0;" parent="1" source="4d2OGvLoM_RoSxxdBMcG-30" target="4d2OGvLoM_RoSxxdBMcG-27" edge="1">
            <mxGeometry x="-0.3142" y="-20" width="240" relative="1" as="geometry">
              <mxPoint x="340" y="1110" as="sourcePoint" />
              <mxPoint x="232" y="1040" as="targetPoint" />
              <Array as="points">
                <mxPoint x="374" y="1080" />
                <mxPoint x="300" y="1080" />
              </Array>
              <mxPoint as="offset" />
            </mxGeometry>
          </mxCell>
        </object>
        <object placeholders="1" c4Type="Relationship" c4Technology="Protobuf&#xa;masstransit" c4Description="ChartInfo&#xa;NegotiateInfo&#xa;SumaryInfo" label="&lt;div style=&quot;text-align: left&quot;&gt;&lt;div style=&quot;text-align: center&quot;&gt;&lt;b&gt;%c4Description%&lt;/b&gt;&lt;/div&gt;&lt;div style=&quot;text-align: center&quot;&gt;[%c4Technology%]&lt;/div&gt;&lt;/div&gt;" id="4d2OGvLoM_RoSxxdBMcG-56">
          <mxCell style="endArrow=blockThin;html=1;fontSize=10;fontColor=#404040;strokeWidth=2;endFill=1;strokeColor=#6bbdf0;elbow=vertical;metaEdit=1;endSize=14;startSize=14;jumpStyle=arc;jumpSize=16;rounded=1;edgeStyle=orthogonalEdgeStyle;curved=0;exitX=1.01;exitY=0.205;exitDx=0;exitDy=0;exitPerimeter=0;flowAnimation=1;shadow=1;" parent="1" source="4d2OGvLoM_RoSxxdBMcG-17" edge="1">
            <mxGeometry x="-0.0316" y="42" width="240" relative="1" as="geometry">
              <mxPoint x="780" y="350" as="sourcePoint" />
              <mxPoint x="650" y="920" as="targetPoint" />
              <Array as="points">
                <mxPoint x="684" y="738" />
                <mxPoint x="684" y="740" />
                <mxPoint x="650" y="740" />
              </Array>
              <mxPoint as="offset" />
            </mxGeometry>
          </mxCell>
        </object>
        <object placeholders="1" c4Name="Market Maker (BolsaX)" c4Type="ContainerScopeBoundary" c4Application="Container Market (BolsaX)" label="&lt;font style=&quot;font-size: 16px&quot;&gt;&lt;b&gt;&lt;div style=&quot;text-align: left&quot;&gt;%c4Name%&lt;/div&gt;&lt;/b&gt;&lt;/font&gt;&lt;div style=&quot;text-align: left&quot;&gt;[%c4Application%]&lt;/div&gt;" id="4d2OGvLoM_RoSxxdBMcG-59">
          <mxCell style="rounded=1;fontSize=11;whiteSpace=wrap;html=1;dashed=1;arcSize=20;fillColor=#e3e3e3;strokeColor=#666666;fontColor=#333333;labelBackgroundColor=none;align=left;verticalAlign=bottom;labelBorderColor=none;spacingTop=0;spacing=10;dashPattern=8 4;metaEdit=1;rotatable=0;perimeter=rectanglePerimeter;noLabel=0;labelPadding=0;allowArrows=0;connectable=0;expand=0;recursiveResize=0;editable=1;pointerEvents=0;absoluteArcSize=1;points=[[0.25,0,0],[0.5,0,0],[0.75,0,0],[1,0.25,0],[1,0.5,0],[1,0.75,0],[0.75,1,0],[0.5,1,0],[0.25,1,0],[0,0.75,0],[0,0.5,0],[0,0.25,0]];" parent="1" vertex="1">
            <mxGeometry x="1170" y="140" width="270" height="220" as="geometry" />
          </mxCell>
        </object>
        <object placeholders="1" c4Name="Market Maker Engine" c4Type="Component" c4Technology="C# BackgroundWorker&#xa;SignalR" c4Description="Responsabilidade Gerar &#xa;Ordens para trade com um spread máximo" label="&lt;font style=&quot;font-size: 16px&quot;&gt;&lt;b&gt;%c4Name%&lt;/b&gt;&lt;/font&gt;&lt;div&gt;[%c4Type%: %c4Technology%]&lt;/div&gt;&lt;br&gt;&lt;div&gt;&lt;font style=&quot;font-size: 11px&quot;&gt;%c4Description%&lt;/font&gt;&lt;/div&gt;" id="4d2OGvLoM_RoSxxdBMcG-60">
          <mxCell style="rounded=1;whiteSpace=wrap;html=1;labelBackgroundColor=none;fillColor=#63BEF2;fontColor=#ffffff;align=center;arcSize=6;strokeColor=#2086C9;metaEdit=1;resizable=0;points=[[0.25,0,0],[0.5,0,0],[0.75,0,0],[1,0.25,0],[1,0.5,0],[1,0.75,0],[0.75,1,0],[0.5,1,0],[0.25,1,0],[0,0.75,0],[0,0.5,0],[0,0.25,0]];" parent="1" vertex="1">
            <mxGeometry x="1185" y="190" width="240" height="120" as="geometry" />
          </mxCell>
        </object>
        <object placeholders="1" c4Type="Relationship" c4Technology="FIX" c4Description="Order para &#xa;Trade" label="&lt;div style=&quot;text-align: left; font-size: 8px;&quot;&gt;&lt;div style=&quot;text-align: center; font-size: 8px;&quot;&gt;&lt;b style=&quot;font-size: 8px;&quot;&gt;%c4Description%&lt;/b&gt;&lt;/div&gt;&lt;div style=&quot;text-align: center; font-size: 8px;&quot;&gt;[%c4Technology%]&lt;/div&gt;&lt;/div&gt;" id="4d2OGvLoM_RoSxxdBMcG-61">
          <mxCell style="endArrow=blockThin;html=1;fontSize=8;fontColor=#404040;strokeWidth=2;endFill=1;strokeColor=#4a115f;elbow=vertical;metaEdit=1;endSize=14;startSize=14;jumpStyle=arc;jumpSize=16;rounded=1;edgeStyle=orthogonalEdgeStyle;curved=0;flowAnimation=1;exitX=0.11;exitY=-0.025;exitDx=0;exitDy=0;exitPerimeter=0;entryX=1.004;entryY=0.058;entryDx=0;entryDy=0;entryPerimeter=0;" parent="1" edge="1">
            <mxGeometry x="-0.1215" y="27" width="240" relative="1" as="geometry">
              <mxPoint x="1186.3999999999996" y="187" as="sourcePoint" />
              <mxPoint x="534.96" y="12.960000000000036" as="targetPoint" />
              <Array as="points">
                <mxPoint x="1186" y="13" />
              </Array>
              <mxPoint as="offset" />
            </mxGeometry>
          </mxCell>
        </object>
        <object placeholders="1" c4Name="Bitstamp Index &#xa;Price X Engine" c4Type="Software System" c4Description="Bitstamp preços para &#xa;index no market maker" label="&lt;font style=&quot;font-size: 16px&quot;&gt;&lt;b&gt;%c4Name%&lt;/b&gt;&lt;/font&gt;&lt;div&gt;[%c4Type%]&lt;/div&gt;&lt;br&gt;&lt;div&gt;&lt;font style=&quot;font-size: 11px&quot;&gt;&lt;font color=&quot;#cccccc&quot;&gt;%c4Description%&lt;/font&gt;&lt;/div&gt;" id="4d2OGvLoM_RoSxxdBMcG-62">
          <mxCell style="rounded=1;whiteSpace=wrap;html=1;labelBackgroundColor=none;fillColor=#8C8496;fontColor=#ffffff;align=center;arcSize=10;strokeColor=#736782;metaEdit=1;resizable=0;points=[[0.25,0,0],[0.5,0,0],[0.75,0,0],[1,0.25,0],[1,0.5,0],[1,0.75,0],[0.75,1,0],[0.5,1,0],[0.25,1,0],[0,0.75,0],[0,0.5,0],[0,0.25,0]];" parent="1" vertex="1">
            <mxGeometry x="1198" y="14" width="240" height="120" as="geometry" />
          </mxCell>
        </object>
        <object placeholders="1" c4Type="Relationship" c4Technology="Protobuf&#xa;SignalR" c4Description="Order para &#xa;Trade" label="&lt;div style=&quot;text-align: left; font-size: 8px;&quot;&gt;&lt;div style=&quot;text-align: center; font-size: 8px;&quot;&gt;&lt;b style=&quot;font-size: 8px;&quot;&gt;%c4Description%&lt;/b&gt;&lt;/div&gt;&lt;div style=&quot;text-align: center; font-size: 8px;&quot;&gt;[%c4Technology%]&lt;/div&gt;&lt;/div&gt;" id="4d2OGvLoM_RoSxxdBMcG-63">
          <mxCell style="endArrow=blockThin;html=1;fontSize=8;fontColor=#404040;strokeWidth=2;endFill=1;strokeColor=#4a115f;elbow=vertical;metaEdit=1;endSize=14;startSize=14;jumpStyle=arc;jumpSize=16;rounded=1;edgeStyle=orthogonalEdgeStyle;curved=0;flowAnimation=1;exitX=1;exitY=0.5;exitDx=0;exitDy=0;exitPerimeter=0;entryX=1;entryY=0.667;entryDx=0;entryDy=0;entryPerimeter=0;" parent="1" source="4d2OGvLoM_RoSxxdBMcG-62" target="4d2OGvLoM_RoSxxdBMcG-60" edge="1">
            <mxGeometry x="-0.1215" y="27" width="240" relative="1" as="geometry">
              <mxPoint x="1520" y="197" as="sourcePoint" />
              <mxPoint x="850" y="23" as="targetPoint" />
              <Array as="points">
                <mxPoint x="1480" y="66" />
                <mxPoint x="1480" y="270" />
              </Array>
              <mxPoint as="offset" />
            </mxGeometry>
          </mxCell>
        </object>
        <object placeholders="1" c4Type="Relationship" c4Technology="Protobuf&#xa;masstransit" c4Description="Executed Trade" label="&lt;div style=&quot;text-align: left; font-size: 8px;&quot;&gt;&lt;div style=&quot;text-align: center; font-size: 8px;&quot;&gt;&lt;b style=&quot;font-size: 8px;&quot;&gt;%c4Description%&lt;/b&gt;&lt;/div&gt;&lt;div style=&quot;text-align: center; font-size: 8px;&quot;&gt;[%c4Technology%]&lt;/div&gt;&lt;/div&gt;" id="4d2OGvLoM_RoSxxdBMcG-64">
          <mxCell style="endArrow=blockThin;html=1;fontSize=8;fontColor=#404040;strokeWidth=2;endFill=1;strokeColor=#6bbdf0;elbow=vertical;metaEdit=1;endSize=14;startSize=14;jumpStyle=arc;jumpSize=16;rounded=1;edgeStyle=orthogonalEdgeStyle;curved=0;flowAnimation=1;exitX=1.002;exitY=0.392;exitDx=0;exitDy=0;exitPerimeter=0;entryX=0.002;entryY=0.824;entryDx=0;entryDy=0;entryPerimeter=0;" parent="1" source="4d2OGvLoM_RoSxxdBMcG-50" target="4d2OGvLoM_RoSxxdBMcG-17" edge="1">
            <mxGeometry x="0.5599" y="20" width="240" relative="1" as="geometry">
              <mxPoint x="1056" y="407" as="sourcePoint" />
              <mxPoint x="1109" y="290" as="targetPoint" />
              <Array as="points">
                <mxPoint x="1100" y="240" />
                <mxPoint x="1160" y="240" />
                <mxPoint x="1160" y="454" />
              </Array>
              <mxPoint as="offset" />
            </mxGeometry>
          </mxCell>
        </object>
        <object placeholders="1" c4Name="Executed &#xa;Trade X" c4Type="Container" c4Technology="Postgree" c4Description="Responsabilidade de storage&#xa;Executed Trades" label="&lt;font style=&quot;font-size: 11px;&quot;&gt;&lt;b style=&quot;font-size: 11px;&quot;&gt;%c4Name%&lt;/b&gt;&lt;/font&gt;&lt;div style=&quot;font-size: 11px;&quot;&gt;[%c4Type%:&amp;nbsp;%c4Technology%]&lt;/div&gt;&lt;br style=&quot;font-size: 11px;&quot;&gt;&lt;div style=&quot;font-size: 11px;&quot;&gt;&lt;font style=&quot;font-size: 11px&quot;&gt;&lt;font color=&quot;#E6E6E6&quot; style=&quot;font-size: 11px;&quot;&gt;%c4Description%&lt;/font&gt;&lt;/font&gt;&lt;/div&gt;" id="Rv_XDdfCVXUgWfI6_WWx-1">
          <mxCell style="shape=cylinder3;size=15;whiteSpace=wrap;html=1;boundedLbl=1;rounded=0;labelBackgroundColor=none;fillColor=#23A2D9;fontSize=11;fontColor=#ffffff;align=center;strokeColor=#0E7DAD;metaEdit=1;points=[[0.5,0,0],[1,0.25,0],[1,0.5,0],[1,0.75,0],[0.5,1,0],[0,0.75,0],[0,0.5,0],[0,0.25,0]];resizable=1;" parent="1" vertex="1">
            <mxGeometry x="656" y="30" width="160" height="100" as="geometry" />
          </mxCell>
        </object>
        <object placeholders="1" c4Type="Relationship" c4Technology="EntityFramework" c4Description="Envio de Executed Trade" label="&lt;div style=&quot;text-align: left; font-size: 8px;&quot;&gt;&lt;div style=&quot;text-align: center; font-size: 8px;&quot;&gt;&lt;b style=&quot;font-size: 8px;&quot;&gt;%c4Description%&lt;/b&gt;&lt;/div&gt;&lt;div style=&quot;text-align: center; font-size: 8px;&quot;&gt;[%c4Technology%]&lt;/div&gt;&lt;/div&gt;" id="Rv_XDdfCVXUgWfI6_WWx-2">
          <mxCell style="endArrow=blockThin;html=1;fontSize=8;fontColor=#404040;strokeWidth=1;endFill=1;strokeColor=#828282;elbow=vertical;metaEdit=1;endSize=14;startSize=14;jumpStyle=arc;jumpSize=16;rounded=1;edgeStyle=orthogonalEdgeStyle;curved=0;exitX=1.001;exitY=0.687;exitDx=0;exitDy=0;exitPerimeter=0;entryX=0.014;entryY=0.293;entryDx=0;entryDy=0;entryPerimeter=0;" parent="1" target="Rv_XDdfCVXUgWfI6_WWx-1" edge="1">
            <mxGeometry x="-0.3868" y="41" width="240" relative="1" as="geometry">
              <mxPoint x="545.2399999999998" y="88.4399999999996" as="sourcePoint" />
              <mxPoint x="558" y="55.99000000000001" as="targetPoint" />
              <Array as="points">
                <mxPoint x="600" y="88" />
                <mxPoint x="600" y="56" />
                <mxPoint x="622" y="56" />
                <mxPoint x="622" y="59" />
              </Array>
              <mxPoint x="1" y="11" as="offset" />
            </mxGeometry>
          </mxCell>
        </object>
        <object placeholders="1" c4Type="Relationship" c4Technology="EntityFramework" c4Description="Envio de Executed Trade&#xa;depois de Liquidado" label="&lt;div style=&quot;text-align: left; font-size: 8px;&quot;&gt;&lt;div style=&quot;text-align: center; font-size: 8px;&quot;&gt;&lt;b style=&quot;font-size: 8px;&quot;&gt;%c4Description%&lt;/b&gt;&lt;/div&gt;&lt;div style=&quot;text-align: center; font-size: 8px;&quot;&gt;[%c4Technology%]&lt;/div&gt;&lt;/div&gt;" id="Rv_XDdfCVXUgWfI6_WWx-3">
          <mxCell style="endArrow=blockThin;html=1;fontSize=8;fontColor=#404040;strokeWidth=1;endFill=1;strokeColor=#828282;elbow=vertical;metaEdit=1;endSize=14;startSize=14;jumpStyle=arc;jumpSize=16;rounded=1;edgeStyle=orthogonalEdgeStyle;curved=0;entryX=1;entryY=0.5;entryDx=0;entryDy=0;entryPerimeter=0;" parent="1" target="Rv_XDdfCVXUgWfI6_WWx-1" edge="1">
            <mxGeometry x="-0.3161" y="-50" width="240" relative="1" as="geometry">
              <mxPoint x="940" y="190" as="sourcePoint" />
              <mxPoint x="1020" y="190" as="targetPoint" />
              <Array as="points">
                <mxPoint x="940" y="80" />
              </Array>
              <mxPoint as="offset" />
            </mxGeometry>
          </mxCell>
        </object>
        <object placeholders="1" c4Type="Relationship" c4Technology="Masstransit" c4Description="Logs&#xa;Inconsistency" label="&lt;div style=&quot;text-align: left; font-size: 8px;&quot;&gt;&lt;div style=&quot;text-align: center; font-size: 8px;&quot;&gt;&lt;b style=&quot;font-size: 8px;&quot;&gt;%c4Description%&lt;/b&gt;&lt;/div&gt;&lt;div style=&quot;text-align: center; font-size: 8px;&quot;&gt;[%c4Technology%]&lt;/div&gt;&lt;/div&gt;" id="FrLviXBLy_idEPl0Kph6-1">
          <mxCell style="endArrow=blockThin;html=1;fontSize=8;fontColor=#404040;strokeWidth=2;endFill=1;strokeColor=#828282;elbow=vertical;metaEdit=1;endSize=14;startSize=14;jumpStyle=arc;jumpSize=16;rounded=1;edgeStyle=orthogonalEdgeStyle;curved=0;flowAnimation=1;shadow=1;entryX=0.039;entryY=0.023;entryDx=0;entryDy=0;entryPerimeter=0;" parent="1" target="4d2OGvLoM_RoSxxdBMcG-11" edge="1">
            <mxGeometry x="-0.4494" y="50" width="240" relative="1" as="geometry">
              <mxPoint x="10" y="80" as="sourcePoint" />
              <mxPoint x="-200" y="200" as="targetPoint" />
              <Array as="points">
                <mxPoint x="-190" y="80" />
                <mxPoint x="-190" y="240" />
                <mxPoint x="-189" y="240" />
              </Array>
              <mxPoint as="offset" />
            </mxGeometry>
          </mxCell>
        </object>
        <object placeholders="1" c4Type="Relationship" c4Technology="EntityFramework" c4Description="Envio de ordem status&#xa;ExecutionReport" label="&lt;div style=&quot;text-align: left; font-size: 8px;&quot;&gt;&lt;div style=&quot;text-align: center; font-size: 8px;&quot;&gt;&lt;b style=&quot;font-size: 8px;&quot;&gt;%c4Description%&lt;/b&gt;&lt;/div&gt;&lt;div style=&quot;text-align: center; font-size: 8px;&quot;&gt;[%c4Technology%]&lt;/div&gt;&lt;/div&gt;" id="FrLviXBLy_idEPl0Kph6-2">
          <mxCell style="endArrow=blockThin;html=1;fontSize=8;fontColor=#404040;strokeWidth=1;endFill=1;strokeColor=#828282;elbow=vertical;metaEdit=1;endSize=14;startSize=14;jumpStyle=arc;jumpSize=16;rounded=1;edgeStyle=orthogonalEdgeStyle;curved=0;entryX=0.5;entryY=0;entryDx=0;entryDy=0;entryPerimeter=0;exitX=0;exitY=0.25;exitDx=0;exitDy=0;exitPerimeter=0;" parent="1" target="4d2OGvLoM_RoSxxdBMcG-12" edge="1">
            <mxGeometry x="-0.3204" y="-26" width="240" relative="1" as="geometry">
              <mxPoint x="304.99999999999955" y="35.999999999999545" as="sourcePoint" />
              <mxPoint x="120" y="42" as="targetPoint" />
              <Array as="points">
                <mxPoint x="110" y="36" />
              </Array>
              <mxPoint as="offset" />
            </mxGeometry>
          </mxCell>
        </object>
        <object placeholders="1" c4Name="Matching Order X" c4Type="Component" c4Technology="C# BackgroundWorker&#xa;FIX" c4Description="Responsabilidade receber ordens e enviar eventos para o Position" label="&lt;font style=&quot;font-size: 16px&quot;&gt;&lt;b&gt;%c4Name%&lt;/b&gt;&lt;/font&gt;&lt;div&gt;[%c4Type%: %c4Technology%]&lt;/div&gt;&lt;br&gt;&lt;div&gt;&lt;font style=&quot;font-size: 11px&quot;&gt;%c4Description%&lt;/font&gt;&lt;/div&gt;" id="NAc5xhBlYTBYwgTL8G_p-1">
          <mxCell style="rounded=1;whiteSpace=wrap;html=1;labelBackgroundColor=none;fillColor=#63BEF2;fontColor=#ffffff;align=center;arcSize=6;strokeColor=#2086C9;metaEdit=1;resizable=0;points=[[0.25,0,0],[0.5,0,0],[0.75,0,0],[1,0.25,0],[1,0.5,0],[1,0.75,0],[0.75,1,0],[0.5,1,0],[0.25,1,0],[0,0.75,0],[0,0.5,0],[0,0.25,0]];" vertex="1" parent="1">
            <mxGeometry x="305" y="10" width="240" height="120" as="geometry" />
          </mxCell>
        </object>
      </root>
    </mxGraphModel>
  </diagram>
</mxfile>
